<?xml version="1.0" encoding="UTF-8" standalone="no"?>

<svg width="134.402" height="75.243" viewBox="1 -2.5 134 80"
xmlns="http://www.w3.org/2000/svg">
<path stroke-linecap="round" stroke="red" stroke-width="5" fill="yellow" fill-opacity="0.82"
d="M 72.602 33.361 L 72.602 0.001 L 83.402 0.001 L 83.402 75.121 L 72.602 75.121 L 72.602 42.121 L 56.642 42.121 L 56.642 75.121 L 45.842 75.121 L 45.842 0.001 L 56.642 0.001 L 56.642 33.361 L 72.602 33.361 Z M 35.162 10.561 L 35.162 23.521 L 24.122 23.521 L 24.122 12.001 A 11.163 11.163 0 0 0 24.09 11.128 Q 23.979 9.714 23.474 9.194 A 1.151 1.151 0 0 0 23.462 9.181 A 1.608 1.608 0 0 0 22.946 8.851 Q 22.169 8.521 20.642 8.521 L 14.522 8.521 A 11.088 11.088 0 0 0 13.588 8.558 Q 12.193 8.676 11.642 9.181 A 1.63 1.63 0 0 0 11.266 9.732 Q 11.024 10.278 10.952 11.179 A 10.394 10.394 0 0 0 10.922 12.001 L 10.922 63.241 A 10.237 10.237 0 0 0 10.956 64.115 Q 11.079 65.546 11.642 66.061 A 1.824 1.824 0 0 0 12.196 66.395 Q 12.772 66.628 13.709 66.695 A 11.483 11.483 0 0 0 14.522 66.721 L 20.642 66.721 A 11.163 11.163 0 0 0 21.515 66.69 Q 22.929 66.578 23.449 66.074 A 1.151 1.151 0 0 0 23.462 66.061 A 1.608 1.608 0 0 0 23.792 65.546 Q 24.122 64.769 24.122 63.241 L 24.122 51.841 L 35.162 51.841 L 35.162 64.561 Q 35.162 75.241 23.882 75.241 L 11.162 75.241 A 16.842 16.842 0 0 1 6.813 74.73 Q 0.002 72.905 0.002 64.561 L 0.002 10.561 A 14.355 14.355 0 0 1 0.575 6.318 Q 2.018 1.655 7.101 0.434 A 17.435 17.435 0 0 1 11.162 0.001 L 23.882 0.001 A 17.433 17.433 0 0 1 28.242 0.498 Q 33.846 1.95 34.911 7.65 A 15.862 15.862 0 0 1 35.162 10.561 Z M 134.402 75.121 L 123.482 75.121 L 120.482 57.721 L 104.642 57.721 L 101.882 75.121 L 91.082 75.121 L 104.402 0.001 L 120.122 0.001 L 134.402 75.121 Z M 112.202 9.361 L 105.962 48.961 L 119.042 48.961 L 112.202 9.361 Z" />
</svg>
