<?xml version="1.0" encoding="UTF-8" standalone="no"?>

<svg width="130.203" height="75.243" viewBox="1 -2.5 130 80"
xmlns="http://www.w3.org/2000/svg">
<path stroke-linecap="round" stroke="red" stroke-width="5" fill="yellow" fill-opacity="0.82"
d="M 73.202 52.681 L 73.202 0.001 L 83.162 0.001 L 83.162 75.121 L 72.242 75.121 L 56.402 20.881 L 56.402 75.121 L 46.442 75.121 L 46.442 0.001 L 57.842 0.001 L 73.202 52.681 Z M 35.162 10.561 L 35.162 21.961 L 24.242 21.961 L 24.242 12.001 A 10.237 10.237 0 0 0 24.207 11.128 Q 24.084 9.697 23.522 9.181 A 1.824 1.824 0 0 0 22.967 8.848 Q 22.392 8.615 21.454 8.548 A 11.483 11.483 0 0 0 20.642 8.521 L 14.522 8.521 A 11.088 11.088 0 0 0 13.588 8.558 Q 12.193 8.676 11.642 9.181 A 1.63 1.63 0 0 0 11.266 9.732 Q 11.024 10.278 10.952 11.179 A 10.394 10.394 0 0 0 10.922 12.001 L 10.922 63.241 A 10.237 10.237 0 0 0 10.956 64.115 Q 11.079 65.546 11.642 66.061 A 1.824 1.824 0 0 0 12.196 66.395 Q 12.772 66.628 13.709 66.695 A 11.483 11.483 0 0 0 14.522 66.721 L 20.642 66.721 A 11.088 11.088 0 0 0 21.575 66.685 Q 22.97 66.567 23.522 66.061 A 1.63 1.63 0 0 0 23.898 65.511 Q 24.14 64.965 24.211 64.064 A 10.394 10.394 0 0 0 24.242 63.241 L 24.242 44.881 L 18.242 44.881 L 18.242 36.481 L 35.162 36.481 L 35.162 64.561 A 14.672 14.672 0 0 1 34.589 68.853 Q 33.145 73.569 28.063 74.804 A 17.248 17.248 0 0 1 24.002 75.241 L 11.162 75.241 A 16.842 16.842 0 0 1 6.813 74.73 Q 0.002 72.905 0.002 64.561 L 0.002 10.561 A 14.355 14.355 0 0 1 0.575 6.319 Q 2.018 1.655 7.101 0.434 A 17.435 17.435 0 0 1 11.162 0.001 L 24.002 0.001 A 17.048 17.048 0 0 1 28.333 0.502 Q 35.162 2.301 35.162 10.561 Z M 130.202 10.561 L 130.202 21.961 L 119.282 21.961 L 119.282 12.001 A 10.237 10.237 0 0 0 119.247 11.128 Q 119.124 9.697 118.562 9.181 A 1.824 1.824 0 0 0 118.007 8.848 Q 117.432 8.615 116.494 8.548 A 11.483 11.483 0 0 0 115.682 8.521 L 109.562 8.521 A 11.088 11.088 0 0 0 108.628 8.558 Q 107.233 8.676 106.682 9.181 A 1.63 1.63 0 0 0 106.306 9.732 Q 106.064 10.278 105.992 11.179 A 10.394 10.394 0 0 0 105.962 12.001 L 105.962 63.241 A 10.237 10.237 0 0 0 105.996 64.115 Q 106.119 65.546 106.682 66.061 A 1.824 1.824 0 0 0 107.236 66.395 Q 107.812 66.628 108.749 66.695 A 11.483 11.483 0 0 0 109.562 66.721 L 115.682 66.721 A 11.088 11.088 0 0 0 116.615 66.685 Q 118.01 66.567 118.562 66.061 A 1.63 1.63 0 0 0 118.938 65.511 Q 119.18 64.965 119.251 64.064 A 10.394 10.394 0 0 0 119.282 63.241 L 119.282 44.881 L 113.282 44.881 L 113.282 36.481 L 130.202 36.481 L 130.202 64.561 A 14.672 14.672 0 0 1 129.629 68.853 Q 128.185 73.569 123.103 74.804 A 17.248 17.248 0 0 1 119.042 75.241 L 106.202 75.241 A 16.842 16.842 0 0 1 101.853 74.73 Q 95.042 72.905 95.042 64.561 L 95.042 10.561 A 14.355 14.355 0 0 1 95.615 6.319 Q 97.058 1.655 102.141 0.434 A 17.435 17.435 0 0 1 106.202 0.001 L 119.042 0.001 A 17.048 17.048 0 0 1 123.373 0.502 Q 130.202 2.301 130.202 10.561 Z" />
</svg>
