<?xml version="1.0" encoding="UTF-8" standalone="no"?>

<svg width="80.522" height="75.123" viewBox="1 -2.5 80 80"
xmlns="http://www.w3.org/2000/svg">
<path stroke-linecap="round" stroke="red" stroke-width="5" fill="yellow" fill-opacity="0.82"
d="M 0 75.121 L 0 0.001 L 24.6 0.001 A 17.048 17.048 0 0 1 28.931 0.502 Q 35.76 2.301 35.76 10.561 L 35.76 35.521 A 14.355 14.355 0 0 1 35.187 39.764 Q 33.743 44.428 28.661 45.649 A 17.435 17.435 0 0 1 24.6 46.081 L 10.8 46.081 L 10.8 75.121 L 0 75.121 Z M 56.04 0.001 L 69.36 0.001 A 17.048 17.048 0 0 1 73.691 0.502 Q 80.52 2.301 80.52 10.561 L 80.52 64.561 A 14.355 14.355 0 0 1 79.947 68.804 Q 78.503 73.468 73.421 74.689 A 17.435 17.435 0 0 1 69.36 75.121 L 56.04 75.121 A 17.433 17.433 0 0 1 51.679 74.625 Q 46.076 73.173 45.01 67.473 A 15.862 15.862 0 0 1 44.76 64.561 L 44.76 10.561 Q 44.76 2.171 51.881 0.447 A 17.726 17.726 0 0 1 56.04 0.001 Z M 69.72 62.881 L 69.72 12.241 A 10.237 10.237 0 0 0 69.686 11.368 Q 69.563 9.937 69 9.421 A 1.824 1.824 0 0 0 68.446 9.088 Q 67.87 8.855 66.932 8.788 A 11.483 11.483 0 0 0 66.12 8.761 L 59.16 8.761 A 11.163 11.163 0 0 0 58.287 8.793 Q 56.873 8.904 56.353 9.409 A 1.151 1.151 0 0 0 56.34 9.421 A 1.608 1.608 0 0 0 56.01 9.937 Q 55.68 10.714 55.68 12.241 L 55.68 62.881 A 11.163 11.163 0 0 0 55.712 63.755 Q 55.823 65.169 56.328 65.689 A 1.151 1.151 0 0 0 56.34 65.701 A 1.608 1.608 0 0 0 56.855 66.032 Q 57.633 66.361 59.16 66.361 L 66.12 66.361 A 11.088 11.088 0 0 0 67.053 66.325 Q 68.449 66.207 69 65.701 A 1.63 1.63 0 0 0 69.376 65.151 Q 69.618 64.605 69.69 63.704 A 10.394 10.394 0 0 0 69.72 62.881 Z M 24.96 33.841 L 24.96 12.241 A 10.237 10.237 0 0 0 24.926 11.368 Q 24.803 9.937 24.24 9.421 A 1.824 1.824 0 0 0 23.686 9.088 Q 23.11 8.855 22.172 8.788 A 11.483 11.483 0 0 0 21.36 8.761 L 10.8 8.761 L 10.8 37.441 L 21.36 37.441 A 10.169 10.169 0 0 0 22.293 37.402 Q 23.209 37.317 23.761 37.051 A 1.737 1.737 0 0 0 24.24 36.721 A 1.834 1.834 0 0 0 24.62 36.131 Q 24.867 35.546 24.935 34.603 A 10.683 10.683 0 0 0 24.96 33.841 Z" />
</svg>
