<?xml version="1.0" encoding="UTF-8" standalone="no"?>

<svg width="160.442" height="75.123" viewBox="1 -2.5 160 80"
xmlns="http://www.w3.org/2000/svg">
<path stroke-linecap="round" stroke="red" stroke-width="5" fill="yellow" fill-opacity="0.82"
d="M 51 65.281 L 59.76 0.001 L 70.68 0.001 L 58.68 75.121 L 43.68 75.121 L 35.28 18.721 L 27 75.121 L 12 75.121 L 0 0.001 L 11.16 0.001 L 19.56 65.281 L 29.28 0.001 L 41.28 0.001 L 51 65.281 Z M 88.8 0.001 L 102.12 0.001 A 17.048 17.048 0 0 1 106.451 0.502 Q 113.28 2.301 113.28 10.561 L 113.28 64.561 A 14.355 14.355 0 0 1 112.707 68.804 Q 111.263 73.468 106.181 74.689 A 17.435 17.435 0 0 1 102.12 75.121 L 88.8 75.121 A 17.433 17.433 0 0 1 84.439 74.625 Q 78.836 73.173 77.77 67.473 A 15.862 15.862 0 0 1 77.52 64.561 L 77.52 10.561 Q 77.52 2.171 84.641 0.447 A 17.726 17.726 0 0 1 88.8 0.001 Z M 135.96 0.001 L 149.28 0.001 A 17.048 17.048 0 0 1 153.611 0.502 Q 160.44 2.301 160.44 10.561 L 160.44 64.561 A 14.355 14.355 0 0 1 159.867 68.804 Q 158.423 73.468 153.341 74.689 A 17.435 17.435 0 0 1 149.28 75.121 L 135.96 75.121 A 17.433 17.433 0 0 1 131.599 74.625 Q 125.996 73.173 124.93 67.473 A 15.862 15.862 0 0 1 124.68 64.561 L 124.68 10.561 Q 124.68 2.171 131.801 0.447 A 17.726 17.726 0 0 1 135.96 0.001 Z M 102.48 62.881 L 102.48 12.241 A 10.237 10.237 0 0 0 102.446 11.368 Q 102.322 9.937 101.76 9.421 A 1.824 1.824 0 0 0 101.206 9.088 Q 100.63 8.855 99.692 8.788 A 11.483 11.483 0 0 0 98.88 8.761 L 91.92 8.761 A 11.163 11.163 0 0 0 91.047 8.793 Q 89.633 8.904 89.113 9.409 A 1.151 1.151 0 0 0 89.1 9.421 A 1.608 1.608 0 0 0 88.77 9.937 Q 88.44 10.714 88.44 12.241 L 88.44 62.881 A 11.163 11.163 0 0 0 88.472 63.755 Q 88.583 65.169 89.088 65.689 A 1.151 1.151 0 0 0 89.1 65.701 A 1.608 1.608 0 0 0 89.615 66.032 Q 90.393 66.361 91.92 66.361 L 98.88 66.361 A 11.088 11.088 0 0 0 99.813 66.325 Q 101.209 66.207 101.76 65.701 A 1.63 1.63 0 0 0 102.136 65.151 Q 102.378 64.605 102.45 63.704 A 10.394 10.394 0 0 0 102.48 62.881 Z M 149.64 62.881 L 149.64 12.241 A 10.237 10.237 0 0 0 149.606 11.368 Q 149.483 9.937 148.92 9.421 A 1.824 1.824 0 0 0 148.366 9.088 Q 147.79 8.855 146.852 8.788 A 11.483 11.483 0 0 0 146.04 8.761 L 139.08 8.761 A 11.163 11.163 0 0 0 138.207 8.793 Q 136.793 8.904 136.273 9.409 A 1.151 1.151 0 0 0 136.26 9.421 A 1.608 1.608 0 0 0 135.93 9.937 Q 135.6 10.714 135.6 12.241 L 135.6 62.881 A 11.163 11.163 0 0 0 135.632 63.755 Q 135.743 65.169 136.248 65.689 A 1.151 1.151 0 0 0 136.26 65.701 A 1.608 1.608 0 0 0 136.775 66.032 Q 137.553 66.361 139.08 66.361 L 146.04 66.361 A 11.088 11.088 0 0 0 146.973 66.325 Q 148.369 66.207 148.92 65.701 A 1.63 1.63 0 0 0 149.296 65.151 Q 149.538 64.605 149.61 63.704 A 10.394 10.394 0 0 0 149.64 62.881 Z" />
</svg>
