<?xml version="1.0" encoding="UTF-8" standalone="no"?>
<!-- Created with Inkscape (http://www.inkscape.org/) -->

<svg
   xmlns:dc="http://purl.org/dc/elements/1.1/"
   xmlns:cc="http://creativecommons.org/ns#"
   xmlns:rdf="http://www.w3.org/1999/02/22-rdf-syntax-ns#"
   xmlns:svg="http://www.w3.org/2000/svg"
   xmlns="http://www.w3.org/2000/svg"
   xmlns:sodipodi="http://sodipodi.sourceforge.net/DTD/sodipodi-0.dtd"
   xmlns:inkscape="http://www.inkscape.org/namespaces/inkscape"
   width="358.88211"
   height="446.67929"
   id="svg2"
   version="1.1"
   inkscape:version="0.91 r13725"
   sodipodi:docname="bamb1.svg">
  <defs
     id="defs4" />
  <sodipodi:namedview
     id="base"
     pagecolor="#ffffff"
     bordercolor="#666666"
     borderopacity="1.0"
     inkscape:pageopacity="0.0"
     inkscape:pageshadow="2"
     inkscape:zoom="1"
     inkscape:cx="121.71198"
     inkscape:cy="224.90322"
     inkscape:document-units="px"
     inkscape:current-layer="svg2"
     showgrid="false"
     fit-margin-top="0"
     fit-margin-left="0"
     fit-margin-right="0"
     fit-margin-bottom="0"
     inkscape:window-width="860"
     inkscape:window-height="704"
     inkscape:window-x="85"
     inkscape:window-y="26"
     inkscape:window-maximized="0" />
  <metadata
     id="metadata7">
    <rdf:RDF>
      <cc:Work
         rdf:about="">
        <dc:format>image/svg+xml</dc:format>
        <dc:type
           rdf:resource="http://purl.org/dc/dcmitype/StillImage" />
        <dc:title />
      </cc:Work>
    </rdf:RDF>
  </metadata>
  <rect
     style="opacity:1;fill:#ffffff;fill-opacity:1;stroke:#000000;stroke-width:4.5;stroke-linecap:butt;stroke-linejoin:round;stroke-miterlimit:4;stroke-dasharray:none;stroke-opacity:1"
     id="rect4178"
     width="353.0567"
     height="441.0567"
     x="2.4716554"
     y="3.1509492"
     rx="69.998901"
     ry="70.158188" />
  <g
     inkscape:label="Layer 1"
     inkscape:groupmode="layer"
     id="layer1"
     transform="translate(-1214.6664,724.38932)">
    <path
       inkscape:connector-curvature="0"
       id="path4095"
       d="m 1272.5433,-279.9089 c -21.7245,-4.68165 -40.5756,-18.8508 -49.9211,-37.52239 -7.6213,-15.22699 -7.1706,-2.94398 -6.8582,-186.91786 l 0.2793,-164.5 2.7068,-7.29799 c 9.2859,-25.03701 29.9685,-42.12611 56.5323,-46.71031 7.8253,-1.3504 23.5759,-1.5084 122.8685,-1.2322 127.5049,0.3546 118.723,-0.1474 134.8924,7.712 14.5744,7.0841 26.4047,18.7587 32.9626,32.5285 6.9685,14.63188 6.5374,2.58869 6.5374,182.65393 0,158.4836 -0.049,162.71793 -1.972,170.23659 -5.1966,20.31869 -21.6385,38.90262 -41.5917,47.01034 -14.0781,5.72045 -11.2693,5.60615 -135.6441,5.51964 -94.0075,-0.0654 -115.4458,-0.32811 -120.7922,-1.48025 z m 244,-3.77867 c 20.2572,-5.43683 37.1036,-19.02151 46.084,-37.16158 7.3346,-14.8154 6.9835,-5.15054 6.684,-184.00659 l -0.268,-159.99341 -2.7557,-8.13052 c -7.5899,-22.39278 -28.5243,-41.13338 -51.2443,-45.87418 -10.4468,-2.1798 -231.5531,-2.1798 -242,0 -22.72,4.7408 -43.6544,23.4814 -51.2442,45.87418 l -2.7558,8.13052 -0.2787,160 c -0.3124,179.35838 -0.7251,168.43834 6.973,184.5 3.3582,7.0068 5.6753,10.1014 13.1898,17.61591 7.53,7.52995 10.5947,9.82244 17.6159,13.17692 9.3374,4.4611 14.173,5.94442 23.3881,7.17438 3.3616,0.44868 56.5119,0.73098 118.1119,0.62734 103.02,-0.17333 112.5212,-0.32831 118.5,-1.93297 z m -154.4338,-49.91158 c 1.0319,-1.2375 2.9858,-3.4875 4.3421,-5 2.8946,-3.22804 3.1171,-3.19401 -7.6698,-1.17273 -4.6295,0.86749 -8.6895,1.30499 -9.0223,0.97222 -0.3328,-0.33278 0.2699,-1.46858 1.3394,-2.52402 1.3838,-1.36574 5.5102,-2.52358 14.3128,-4.01611 6.8025,-1.15343 12.7849,-1.95827 13.2941,-1.78855 0.5091,0.16973 -2.2817,3.78948 -6.2019,8.04389 -5.3386,5.79383 -7.773,7.7353 -9.6991,7.7353 -2.5559,0 -2.5601,-0.0136 -0.6953,-2.25 z m 50.4338,-4.36798 c 0,-0.3399 1.3778,-2.18715 3.0617,-4.10502 1.6839,-1.91787 2.907,-3.64166 2.718,-3.83064 -0.189,-0.18899 -3.5462,0.59063 -7.4606,1.7325 -6.5712,1.91691 -7.2913,1.95399 -9.3907,0.48351 -1.7221,-1.20621 -1.9286,-1.71491 -0.8511,-2.09676 3.6026,-1.27663 31.2141,-8.60678 31.4621,-8.35238 0.1537,0.15772 -2.9422,3.96463 -6.8799,8.45979 -5.5927,6.38438 -7.7613,8.18986 -9.9095,8.25 -1.5125,0.0423 -2.75,-0.20111 -2.75,-0.541 z m -44.9117,-11.30633 c -1.1291,-0.71472 -0.1779,-2.7985 4.75,-10.40546 6.073,-9.37476 6.1617,-9.61374 6.1617,-16.591 l 0,-7.07923 -4.25,-0.006 c -8.7303,-0.0119 -15.9657,-1.83281 -19.9248,-5.01447 l -3.8162,-3.06674 -9.7112,3.63728 c -18.0977,6.77859 -23.2326,7.78891 -39.7978,7.83065 -26.39,0.0665 -28.7421,-2.91951 -16.598,-21.07142 10.5562,-15.77836 22.7027,-26.13831 41.9749,-35.80119 4.9452,-2.47946 9.4709,-4.50811 10.0572,-4.50811 0.5863,0 1.0659,-0.3853 1.0659,-0.85622 0,-0.47093 -3.7125,-1.15787 -8.25,-1.52655 -4.5375,-0.36868 -12.3,-1.185 -17.25,-1.81405 -11.5529,-1.46815 -8.8164,-2.29562 10.8418,-3.27833 10.7647,-0.53813 14.6582,-1.06871 14.6582,-1.9975 0,-0.6956 -6.4125,-3.85834 -14.25,-7.0283 -7.8375,-3.16997 -15.375,-6.36104 -16.75,-7.09127 -2.1973,-1.16696 -2.2579,-1.33076 -0.5,-1.35296 1.7978,-0.0227 12.4568,2.22475 16.6512,3.51092 1.3384,0.4104 1.7812,-0.49512 2.3373,-4.77971 1.2582,-9.69552 3.7483,-19.18908 7.1464,-27.24633 1.8508,-4.38844 3.3651,-8.05229 3.3651,-8.14188 0,-0.0896 -2.9005,-2.05268 -6.4456,-4.36241 -6.0377,-3.93371 -9.6316,-7.03541 -8.1519,-7.03541 1.681,0 15.183,7.47394 23.6584,13.09595 12.805,8.49399 36.3307,31.84763 37.303,37.03006 0.3676,1.9598 3.1582,7.34569 6.2013,11.96864 3.043,4.62294 7.1627,11.1896 9.1549,14.59257 l 3.622,6.18723 2.8312,-1.46405 c 2.8204,-1.4585 2.8253,-1.47815 1.2866,-5.18722 -2.9096,-7.01356 -7.9632,-14.48457 -14.7099,-21.7463 -7.0421,-7.57978 -7.738,-8.88378 -5.25,-9.83851 1.2719,-0.48808 1.5,-4.00158 1.5,-23.10699 0,-21.86471 0.059,-22.53138 2,-22.53138 1.936,0 2,0.66667 2,20.83333 0,11.45834 0.2807,21.11406 0.6238,21.45716 0.3431,0.3431 2.4262,-0.29568 4.6291,-1.41951 l 4.0053,-2.04334 -0.6204,-5.16382 c -0.3412,-2.8401 -0.6243,-12.02632 -0.6291,-20.41382 l -0.01,-15.25 -2.5398,0 c -1.3969,0 -4.4108,-0.95448 -6.6975,-2.12106 -5.1188,-2.61141 -13.8662,-2.19145 -20.7627,0.9968 -2.475,1.14418 -5.6809,2.09022 -7.1243,2.1023 -1.4433,0.0121 -4.5436,0.69915 -6.8895,1.52684 -3.6463,1.2865 -6.2577,1.33794 -17.9954,0.35451 l -13.73,-1.15037 -1.4206,-4.57455 -1.4207,-4.57456 -7.9597,-1.79278 c -11.4576,-2.58061 -10.9308,-2.10732 -7.97,-7.15952 l 2.5887,-4.41723 -8.2892,-2.67377 c -4.5591,-1.47058 -8.9643,-2.9158 -9.7893,-3.21162 -0.8797,-0.31544 0.9139,-1.36323 4.3375,-2.53392 3.2106,-1.09784 5.4606,-2.32189 5,-2.72011 -0.4606,-0.39822 -3.3125,-1.74421 -6.3375,-2.99109 -3.025,-1.24688 -5.861,-2.60396 -6.3023,-3.01573 -0.4412,-0.41177 2.0338,-1.32894 5.5,-2.03816 3.4663,-0.70922 6.6555,-1.60141 7.0872,-1.98265 0.4317,-0.38124 -1.7305,-2.0429 -4.8048,-3.69258 l -5.5898,-2.99941 11.0652,-2.32199 c 6.0859,-1.2771 10.8506,-2.53662 10.5883,-2.79894 -0.2624,-0.26232 -3.7545,-1.2702 -7.7604,-2.23973 l -7.2834,-1.76278 6,-0.17424 c 9.6807,-0.28111 10.7475,-1.24951 4.3957,-3.9899 -6.1526,-2.65442 -6.2964,-2.50883 6.1043,-6.18238 6.8879,-2.04045 7.2552,-2.27903 4.5,-2.92326 -1.65,-0.38582 -4.575,-0.76162 -6.5,-0.83512 -7.0418,-0.26885 -6.4806,-1.83711 1.1243,-3.14185 4.0566,-0.69598 7.7378,-1.58158 8.1804,-1.968 0.4426,-0.38642 -1.2754,-1.28501 -3.8179,-1.99686 -5.3456,-1.49666 -4.5287,-2.52778 2.8013,-3.53591 l 4.8837,-0.67168 -2.773,-2.89435 c -2.6166,-2.73118 -2.6543,-2.89435 -0.6677,-2.89435 1.1579,0 2.8789,-0.29685 3.8244,-0.65966 1.3498,-0.51799 0.7768,-1.15255 -2.6682,-2.95481 l -4.3873,-2.29516 5.75,-0.0452 c 3.1625,-0.0249 5.7468,-0.38269 5.7428,-0.79519 -0,-0.4125 -1.9164,-2.01709 -4.25,-3.56575 -2.3335,-1.54867 -3.3428,-2.58516 -2.2428,-2.30332 1.1,0.28184 3.8,0.78462 6,1.11728 3.795,0.57385 3.8778,0.53264 1.6149,-0.80417 -2.5783,-1.52313 -2.1976,-2.03813 2.3042,-3.11727 l 2.9191,-0.69976 -5.9191,-3.93532 c -6.6067,-4.39248 -6.5466,-4.44936 2.5809,-2.44167 9.3038,2.04647 9.357,2.02574 6.4834,-2.52638 l -2.5418,-4.02638 2.2792,0.46363 c 1.2536,0.255 3.5854,0.74268 5.1818,1.08373 l 2.9026,0.6201 -1.6526,-2.55735 c -0.9089,-1.40654 -2.3793,-3.68235 -3.2676,-5.05735 -0.8883,-1.375 -1.4508,-2.49513 -1.25,-2.48918 0.2008,0.006 2.5025,0.65943 5.115,1.45217 4.9754,1.50973 5.6227,1.03622 3.6424,-2.66416 -1.1878,-2.21942 -1.409,-2.21097 5.7448,-0.21952 2.0495,0.57054 2.1007,0.4 1.2492,-4.15806 -0.4884,-2.61416 -0.7183,-4.92269 -0.5109,-5.13007 0.2074,-0.20738 2.6385,0.48222 5.4025,1.53245 l 5.0254,1.90951 0.5983,-2.99157 c 0.3291,-1.64536 0.5983,-4.08194 0.5983,-5.41461 l 0,-2.42304 4.4302,3.04804 c 2.4366,1.67642 4.6866,3.04804 5,3.04804 0.3134,0 0.5738,-2.3625 0.5786,-5.25 l 0.01,-5.25 3.6663,5.24155 c 2.0165,2.88285 3.8436,5.06434 4.0601,4.84775 0.2166,-0.21659 0.7365,-2.57528 1.1553,-5.24155 l 0.7613,-4.84775 2.5335,5.5 2.5335,5.5 0.6997,-5 c 0.3848,-2.75 0.7996,-5.675 0.9218,-6.5 0.1221,-0.825 1.0824,0.8625 2.134,3.75 1.0515,2.8875 2.1662,5.25 2.4772,5.25 0.311,0 1.2548,-2.3625 2.0974,-5.25 l 1.532,-5.25 1.533,4.4839 1.533,4.4839 1.8374,-4.9839 c 1.0105,-2.74115 2.1289,-5.32735 2.4852,-5.74711 0.3564,-0.41977 1.4607,1.81509 2.454,4.96635 l 1.8061,5.72957 2.2227,-4.35681 2.2227,-4.35681 2.7693,3.63071 c 3.0492,3.99772 4.4947,3.9483 4.6456,-0.15882 0.081,-2.21119 0.3448,-1.90733 1.4785,1.70425 0.7589,2.41737 1.5813,4.59682 1.8277,4.84321 0.2464,0.24638 1.7725,-1.87113 3.3913,-4.70558 3.0731,-5.38078 4.2036,-5.1323 4.2036,0.92393 0,1.53626 0.2785,4.18574 0.6189,5.88773 l 0.6189,3.09451 4.3811,-3.58997 4.3811,-3.58998 0,4.95379 c 0,2.72459 0.2731,5.22686 0.6068,5.56061 0.3338,0.33375 3.103,-0.49707 6.1537,-1.84628 3.0508,-1.34921 5.733,-2.26702 5.9605,-2.03958 0.2274,0.22743 -0.772,2.753 -2.221,5.61238 -1.4489,2.85938 -2.4228,5.41052 -2.1641,5.6692 0.2587,0.25868 2.3575,-0.49246 4.6641,-1.6692 2.3066,-1.17674 4.433,-1.90037 4.7253,-1.60807 0.2923,0.2923 0,2.62843 -0.642,5.1914 -0.6453,2.56297 -0.9767,4.85657 -0.7364,5.09689 0.2403,0.24032 2.0606,-0.24146 4.045,-1.07061 4.0043,-1.6731 4.2417,-1.30552 2.6779,4.14699 -1.0546,3.67726 -0.7701,3.77472 6.7677,2.31813 l 4.3374,-0.83816 -3.8374,4.00588 -3.8375,4.00588 6.25,-0.52934 c 3.4375,-0.29113 6.25,-0.35217 6.25,-0.13563 0,0.21654 -2.716,2.37001 -6.0356,4.7855 l -6.0356,4.39179 5.6645,0.70773 5.6645,0.70774 -5.1289,5.19338 c -2.8209,2.85637 -5.1289,5.51674 -5.1289,5.91195 0,0.3952 1.2938,0.71855 2.875,0.71855 1.5813,0 4.2418,0.27336 5.9124,0.60748 l 3.0374,0.60747 -3.4708,3.04741 c -4.3051,3.77995 -3.2642,4.70105 5.337,4.72233 3.405,0.008 6.424,0.39241 6.7089,0.8533 0.2848,0.4609 -2.0511,2.75867 -5.191,5.10615 l -5.7089,4.26817 8.8453,-0.50144 c 4.8649,-0.27579 8.4649,-0.156 8,0.2662 -0.4649,0.42219 -4.4453,2.39054 -8.8453,4.3741 -4.4,1.98355 -7.775,3.67897 -7.5,3.76759 0.275,0.0886 4.775,0.68034 10,1.31492 l 9.5,1.15379 -6.7125,3.40239 -6.7124,3.40239 3.4349,2.44397 c 3.7535,2.67067 3.7288,4.16378 -0.069,4.16378 -3.1197,0 -3.0713,0.73264 0.2793,4.2299 l 2.7202,2.83935 -5.7202,-0.67231 c -5.8502,-0.68757 -7.1898,0.13864 -4.2203,2.60306 2.7492,2.28163 1.5538,3.72134 -4.5,5.41996 -6.8765,1.92946 -6.92,2.0516 -4.452,12.52225 0.8351,3.54321 1.2926,7.03071 1.0166,7.75 -0.3227,0.841 -2.326,1.30779 -5.6127,1.30779 l -5.1108,0 0.6389,2.90911 0.639,2.9091 -7.3095,0.67243 c -6.1717,0.56776 -8.662,0.27839 -15.9984,-1.859 -10.2315,-2.98081 -23.6263,-5.63164 -28.457,-5.63164 -1.9267,0 -5.4873,1.20298 -8.1395,2.75 l -4.7146,2.75 0.2714,19.81061 0.2713,19.81062 2.2287,-0.68158 c 5.0283,-1.5378 4.9006,-0.96841 4.7727,-21.27551 -0.1166,-18.53077 -0.055,-19.16414 1.8772,-19.16414 1.8122,0 2.0248,0.76658 2.2883,8.25 0.2691,7.64368 0.4527,8.27309 2.4989,8.56412 2.1067,0.29963 2.222,-0.0687 2.5,-7.98894 0.2449,-6.97511 0.5714,-8.35654 2.0415,-8.63744 1.5623,-0.29853 1.75,0.6356 1.75,8.71034 l 0,9.04474 3.25,0.88178 c 1.7875,0.48498 3.5875,0.69629 4,0.46958 0.4125,-0.22672 0.75,-4.66066 0.75,-9.8532 0,-8.77431 0.1412,-9.44098 2,-9.44098 1.8723,0 2,0.66667 2,10.44098 0,5.74254 0.3375,10.63033 0.75,10.86174 0.4125,0.23142 1.9875,0.71655 3.5,1.07807 l 2.75,0.65731 0,-9.59237 c 0,-8.59657 0.1817,-9.5576 1.75,-9.25733 1.5049,0.28812 1.7896,1.74036 2.0327,10.36643 l 0.2827,10.03138 2.9094,1.09816 c 1.6001,0.60399 3.1604,0.8471 3.4673,0.54023 0.3068,-0.30686 0.5579,-4.30793 0.5579,-8.89127 0,-7.74574 0.1452,-8.33333 2.0586,-8.33333 1.9503,0 2.0483,0.51108 1.8627,9.7113 l -0.1958,9.71129 5.0063,2.70433 5.0064,2.70434 4.7636,-6.48773 c 9.8177,-13.37099 23.6667,-25.37193 38.9982,-33.79401 l 5,-2.74666 -3,2.68475 c -1.65,1.47662 -7.1315,6.24476 -12.1811,10.59588 -8.7543,7.54338 -22.8321,23.2887 -26.5699,29.71711 l -1.751,3.01145 4.8686,4.07621 4.8685,4.07622 4.2852,-6.10893 c 5.182,-7.38748 14.398,-17.36384 21.3568,-23.11882 5.6427,-4.66663 5.2094,-3.85561 -4.491,8.40425 -3.6376,4.59746 -8.8697,12.36514 -11.627,17.26152 l -5.0131,8.9025 3.3542,4.39417 c 4.4987,5.89365 9.6812,15.28908 13.4319,24.35099 3.358,8.11316 7.9679,24.68662 7.9679,28.64627 l 0,2.47748 -23.25,-0.79811 c -36.3984,-1.24946 -33.0958,-1.52185 -33.8046,2.78812 -0.3314,2.01516 -1.3478,4.80129 -2.2586,6.19141 -3.2473,4.956 -14.872,11.54134 -23.0566,13.0615 -3.8139,0.70837 -3.8611,0.77198 -3.261,4.40097 0.3348,2.02521 0.6138,5.1447 0.6198,6.9322 0.01,2.79707 0.3594,3.25 2.511,3.25 1.8333,0 2.5,0.53333 2.5,2 0,1.44682 -0.6667,2 -2.4103,2 -1.8642,0 -3.8365,1.92562 -8.7057,8.5 -5.3398,7.20971 -6.7286,8.5 -9.1488,8.5 -3.4066,0 -3.5109,0.22398 5.0423,-10.82227 l 6.4439,-8.32228 -0.696,-7.42772 c -0.4317,-4.60669 -1.1384,-7.42021 -1.8607,-7.40792 -0.6406,0.0109 -4.1661,0.45395 -7.8345,0.98457 -3.6684,0.53062 -11.6758,1.03009 -17.7943,1.10993 l -11.1246,0.14517 0.2944,6.12026 c 0.2777,5.77439 0.4265,6.10173 2.6326,5.79244 3.0987,-0.43441 2.6134,2.9051 -0.6289,4.32782 -1.2534,0.55 -4.8508,4.93044 -7.9942,9.73431 -5.7548,8.79485 -6.5464,9.47494 -9.127,7.84138 z m -62.5759,-39.52765 c 1.9182,-2.99858 3.4871,-5.58608 3.4864,-5.75 -6e-4,-0.16392 -4.74,-0.36449 -10.5319,-0.44572 l -10.5306,-0.14767 -1.97,3.86149 -1.97,3.8615 2.0616,1.10332 c 1.1338,0.60683 4.8472,1.46605 8.2518,1.90938 3.4047,0.44333 6.5334,0.86311 6.9527,0.93286 0.4194,0.0697 2.3319,-2.32658 4.25,-5.32516 z m 23.9876,-0.10578 c 6.05,-1.81745 12.8622,-4.12295 15.1382,-5.12335 3.6514,-1.60498 4.0375,-2.08354 3.2822,-4.06891 -1.0277,-2.70141 -1.0406,-2.70134 -17.4204,0.0901 l -13,2.21546 -3.25,4.96078 c -1.7875,2.72843 -3.25,5.32382 -3.25,5.76754 0,1.16466 5.9428,-0.0694 18.5,-3.84162 z m 86.1634,-0.0375 c 19.0349,-2.73645 27.7432,-6.97155 32.1765,-15.64829 2.238,-4.38025 2.3268,-5.08948 1.1591,-9.26005 -1.7037,-6.08501 -7.7072,-12.67158 -14.2113,-15.59155 -4.2941,-1.9278 -6.9788,-2.37543 -14.2877,-2.38219 -10.5138,-0.01 -12.4814,0.8124 -25.5927,10.69356 -4.624,3.48484 -10.5399,7.33681 -13.1464,8.55993 -19.3328,9.07201 -25.7004,-9.31346 -9.2736,-26.77615 5.295,-5.62895 6.9437,-9.69669 6.8341,-16.8615 -0.071,-4.63187 -0.6286,-7.07887 -2.0513,-9 -6.8397,-9.23594 -20.1272,-10.59288 -28.8377,-2.94495 -4.8481,4.25663 -6.4324,7.75209 -6.4324,14.19169 0,7.25341 1.0159,9.60491 6.5939,15.26305 4.8464,4.91593 8.346,11.21002 8.3842,15.07888 0.012,1.22495 -1.036,5.04995 -2.3291,8.5 -3.1878,8.50584 -3.8989,12.98332 -2.6045,16.39943 1.3572,3.58197 4.5943,7.11547 8.2704,9.02762 6.4276,3.34346 34.6499,3.72615 55.3485,0.75052 z m -60.6634,-61.40476 c -2.6144,-2.61443 -2.7115,-9.04611 -0.1712,-11.34501 3.8159,-3.45335 11.3122,-1.21358 12.5586,3.75228 0.6768,2.69647 -0.8325,7.61965 -2.6999,8.80707 -2.3164,1.47288 -7.6715,0.80161 -9.6875,-1.21434 z m 7.947,-3.43608 c 0.8846,-1.06596 0.9071,-1.96801 0.087,-3.5 -1.3434,-2.51017 -4.5808,-2.6966 -5.8998,-0.33974 -2.1294,3.80513 3.0187,7.20603 5.8125,3.83974 z m -47.4928,49.79228 c 1.9502,-2.55409 3.5458,-5.02909 3.5458,-5.5 0,-0.47091 -4.465,-0.8562 -9.9222,-0.8562 l -9.9222,0 -4.0556,4.74469 c -4.9241,5.76072 -4.5015,6.08323 8.1042,6.18502 l 8.7042,0.0703 3.5458,-4.6438 z m 20.7958,0.95994 c 8.7526,-1.38722 10.75,-2.01773 10.75,-3.39334 0,-2.25895 -2.8555,-2.89524 -13,-2.89677 l -8.5,-10e-4 -2.25,3.47359 c -1.2375,1.91048 -2.25,3.70491 -2.25,3.98763 0,0.90221 4.218,0.57865 15.25,-1.16984 z m 13.7256,-13.99379 c 1.138,-2.5727 1.7216,-4.99733 1.2968,-5.38806 -0.4248,-0.39072 -3.7618,-1.01645 -7.4156,-1.39051 l -6.6433,-0.6801 -3.7314,4.46396 c -2.0523,2.45517 -3.7878,4.84835 -3.8567,5.31816 -0.12,0.8175 6.7173,1.84522 14.5778,2.1912 3.4995,0.15403 3.8171,-0.0943 5.7724,-4.51465 z m 129.0244,2.75944 c 0,-3.49221 -1.0021,-3.81405 -6.8003,-2.18407 l -5.6997,1.60228 3.5,0.61836 c 5.5193,0.97511 9,0.96096 9,-0.0366 z m 24.808,-3.84094 c 0.2236,-3.09243 -0.1078,-4.41868 -1.2097,-4.84151 -1.4432,-0.55379 -7.7307,0.50516 -15.7884,2.6591 -3.5766,0.95607 -3.6579,1.07915 -2.6396,4.00006 l 1.0505,3.01363 9.1396,-0.28607 9.1396,-0.28606 0.308,-4.25915 z m -176.549,-1.03881 3.7589,-4.70204 -6.738,-0.30091 c -8.7111,-0.38903 -9.9582,-0.0204 -15.2691,4.51395 l -4.4356,3.78696 5.9624,0.58189 c 12.7264,1.24201 12.6041,1.27039 16.7214,-3.87985 z m 148.2742,-3.4019 c 0.5043,-0.50432 -0.8382,-4.14617 -2.0717,-5.6199 -0.4281,-0.51144 -8.3934,3.75416 -14.16,7.58296 -8.5393,5.66975 -6.6912,6.51073 5.1507,2.34376 5.7487,-2.02289 10.7351,-3.96095 11.081,-4.30682 z m -97.1046,6.31545 c 0.5875,-0.9506 -8.3242,-3.55331 -9.1927,-2.68478 -0.2865,0.28647 0.048,1.20673 0.7441,2.04502 1.3569,1.63499 7.5439,2.10349 8.4486,0.63976 z m 9.5714,-6.29778 c 0,-1.56814 -6.7252,-9.59168 -9.641,-11.50213 -2.2956,-1.50419 -2.5781,-1.4592 -4.9912,0.79494 -3.0196,2.82072 -5.7906,7.79886 -4.8607,8.73231 0.36,0.36139 4.1057,1.58562 8.3237,2.72052 7.526,2.02491 11.1692,1.78169 11.1692,-0.74564 z m 82.5521,-10.03655 c 0.1711,-0.17113 -0.5138,-1.40478 -1.5221,-2.74144 l -1.8331,-2.43031 -7.8102,5.94525 c -4.2955,3.26988 -8.2484,6.24844 -8.7841,6.61902 -0.6093,0.4215 -0.5127,1.22964 0.258,2.15828 1.0625,1.28014 2.4811,0.74638 10.3062,-3.87759 4.9908,-2.94914 9.2142,-5.50208 9.3853,-5.67321 z m 20.9119,5.79228 c 4.9302,-1.29656 9.1033,-2.77552 9.2737,-3.28659 0.4726,-1.41768 -2.6311,-8.28695 -3.7442,-8.28695 -1.3594,0 -18.9935,7.10675 -18.9935,7.65461 0,1.11212 3.1288,6.3417 3.7757,6.31085 0.3984,-0.019 4.7581,-1.09536 9.6883,-2.39192 z m -95.9977,-0.53629 c 2.1514,-2.37723 2.0959,-2.53315 -4.955,-13.93175 -5.5147,-8.91519 -7.5075,-10.86572 -7.515,-7.3555 -0,0.9625 -0.9109,3.23789 -2.0196,5.05643 l -2.0159,3.30642 6.7696,7.42557 c 3.7233,4.08407 7.0374,7.43368 7.3646,7.44358 0.3273,0.01 1.3944,-0.86524 2.3713,-1.94475 z m -44.4663,-0.92647 c 0,-0.48906 -0.8327,-1.9176 -1.8505,-3.17452 l -1.8505,-2.28531 -3.1495,2.24262 c -1.7322,1.23344 -3.1495,2.66198 -3.1495,3.17452 0,0.51255 2.25,0.93191 5,0.93191 2.75,0 5,-0.40015 5,-0.88922 z m -11.0346,-4.57554 c 3.6722,-3.74167 4.1054,-4.57085 2.6748,-5.1198 -1.5911,-0.61059 -20.6402,7.73387 -20.6402,9.04147 0,0.2987 3.0563,0.54309 6.7918,0.54309 6.7206,0 6.8377,-0.0468 11.1736,-4.46476 z m 115.7489,-2.03524 c 4.5179,-3.3 8.2304,-6.49276 8.25,-7.09501 0.056,-1.70467 -3.7362,-4.70647 -5.224,-4.13558 -0.7338,0.28159 -4.8425,3.29995 -9.1306,6.70748 l -7.7963,6.19551 2.2856,2.43301 c 1.2572,1.33816 2.5367,2.31187 2.8434,2.1638 0.3067,-0.14806 4.2541,-2.96921 8.7719,-6.26921 z m -10.9095,-10.87155 c 0.1885,-2.86253 -0.1114,-4.62845 -0.7862,-4.62845 -2.4128,0 -18.0514,4.30353 -19.5074,5.36817 -1.1268,0.82396 -1.3807,2.0345 -0.9149,4.36336 0.5516,2.75798 1.1683,3.31028 4.2742,3.82765 1.9962,0.33253 4.7545,0.95882 6.1295,1.39175 2.0069,0.63189 3.289,0.14797 6.5,-2.45344 3.4811,-2.82015 4.0396,-3.84108 4.3048,-7.86904 z m 48.6438,-1.72784 c -0.825,-1.59533 -2.0052,-2.90061 -2.6228,-2.90061 -1.49,0 -17.5792,8.79203 -18.3391,10.02148 -0.3265,0.5283 0.163,1.97709 1.0876,3.21953 l 1.6813,2.25899 9.8465,-4.84939 9.8465,-4.84939 -1.5,-2.90061 z m -77.1986,10.66386 c 2.2502,-0.49306 2.75,-1.14432 2.75,-3.58352 0,-3.39583 -0.906,-3.56653 -6.1398,-1.15679 -3.1524,1.45141 -3.5258,1.97493 -2.7884,3.90919 0.4683,1.22833 1.4312,2.05342 2.1398,1.83352 0.7087,-0.2199 2.5259,-0.67098 4.0384,-1.0024 z m -1.5871,-10.19698 c 2.9916,-1.24996 3.3371,-1.8071 3.3371,-5.38091 0,-2.19262 -0.4333,-3.98658 -0.963,-3.98658 -1.4041,0 -11.3914,4.00119 -12.3721,4.95662 -0.4593,0.44747 -0.098,2.23818 0.802,3.97936 1.7533,3.39045 2.0778,3.40568 9.196,0.43151 z m 67.5753,-5.6571 c 3.1559,-1.76572 5.7434,-3.46188 5.75,-3.76926 0.01,-0.30738 -0.6058,-1.40351 -1.3607,-2.43585 -1.3171,-1.80131 -1.7102,-1.71271 -9.75,2.19755 -4.6076,2.241 -9.2525,4.74508 -10.3219,5.56462 -1.8648,1.42907 -1.8733,1.59868 -0.2067,4.14219 l 1.7377,2.6521 4.2067,-2.57048 c 2.3137,-1.41377 6.7889,-4.01516 9.9449,-5.78087 z m -23.8705,1.40973 c 4.6584,-3.06126 3.909,-3.46749 -3.3677,-1.8256 -5.2343,1.18106 -5.5157,1.40507 -5.8256,4.63781 l -0.3256,3.3968 2.8256,-1.83367 c 1.5541,-1.00853 4.5661,-2.97743 6.6933,-4.37534 z m -24.2046,-1.81018 10.0318,-2.69006 -0.6432,-4.0224 c -0.3538,-2.21232 -0.8364,-4.21556 -1.0725,-4.45165 -0.2361,-0.23609 -4.985,1.01494 -10.5532,2.78007 -9.295,2.94658 -10.076,3.38801 -9.5386,5.39172 0.3219,1.20031 0.5915,2.96988 0.599,3.93238 0.017,2.18699 -0.7139,2.24847 11.1767,-0.94006 z m -23.6631,-5.86399 6,-2.27201 -0.2415,-4.33697 c -0.1329,-2.38533 -0.495,-5.82198 -0.8047,-7.637 -0.4856,-2.84553 -0.8655,-3.20746 -2.7585,-2.6279 -2.9204,0.89413 -20.0886,7.59139 -20.5855,8.03035 -0.2147,0.1896 1.2107,2.1168 3.1675,4.28268 1.9567,2.16587 4.0793,4.91267 4.7169,6.10399 0.8036,1.5015 1.6726,1.94557 2.8325,1.44745 0.9203,-0.39522 4.3733,-1.74098 7.6733,-2.99059 z m 49.826,-0.51239 c 5.5772,-1.13654 10.3032,-2.22936 10.5023,-2.42849 0.1991,-0.19913 0.059,-1.74424 -0.3126,-3.43356 -0.7886,-3.59057 -2.4711,-3.80965 -14.9748,-1.94995 -7.3229,1.08914 -7.5409,1.20241 -7.5409,3.91821 0,2.92135 0.8667,5.96023 1.6999,5.96023 0.2673,0 5.049,-0.9299 10.6261,-2.06644 z m -121.0579,-4.18356 c 0.8468,-2.3375 1.8009,-6.39858 2.1201,-9.02462 0.4992,-4.10775 3.6814,-14.62381 6.0053,-19.84595 0.5192,-1.16682 -0.4011,-2.50945 -3.2871,-4.79519 l -4.0083,-3.17461 -1.5263,2.95148 c -3.1748,6.13944 -6.6565,20.63315 -6.8642,28.57458 -0.2181,8.3383 -0.084,8.57351 5.4066,9.46463 0.3377,0.0548 1.307,-1.81282 2.1539,-4.15032 z m 139.5827,1.15217 c 3.6023,-1.25575 3.7293,-1.629 1.5925,-4.67966 -1.5023,-2.14483 -6.4433,-3.17816 -6.4433,-1.34751 0,1.27872 1.2109,7.125 1.4758,7.125 0.1242,0 1.6429,-0.49402 3.375,-1.09783 z m -46.6655,-3.67247 c 4.7769,-1.50134 8.7732,-3.07969 8.8807,-3.50745 0.1076,-0.42776 -0.3846,-3.51138 -1.0936,-6.85248 l -1.2892,-6.07473 -3.8633,0.61777 c -2.1248,0.33978 -6.2161,1.39839 -9.0916,2.35248 -5.2236,1.73314 -5.2281,1.73832 -4.9726,5.73471 0.387,6.05342 1.2529,10.50236 2.0396,10.4797 0.3876,-0.0112 4.6131,-1.24867 9.39,-2.75 z m 25.3147,-5.71449 c 4.4,-0.79499 8.5625,-1.46113 9.25,-1.48032 1.3531,-0.0378 1.6784,-3.83449 0.4847,-5.65591 -0.4041,-0.61656 -3.4347,-2.44752 -6.7347,-4.06879 -5.2227,-2.56592 -6.628,-2.85064 -10.8477,-2.1979 -2.6663,0.41243 -5.101,1.00312 -5.4105,1.31264 -0.5357,0.53569 1.4949,11.24815 2.431,12.82507 0.5985,1.00821 1.5303,0.94498 10.8272,-0.73479 z m -103.3324,-4.35131 c 6.4706,-2.10855 7.0845,-5.21803 2.0558,-10.4139 -1.9961,-2.0625 -3.9046,-3.75 -4.2411,-3.75 -0.9381,0 -3.6304,6.08875 -4.4235,10.00401 -0.3894,1.92279 -0.9514,4.35156 -1.2488,5.39726 -0.4408,1.54968 -0.1958,1.7517 1.3246,1.09245 1.026,-0.44486 3.9658,-1.49328 6.533,-2.32982 z m 10.8324,-1.60488 c 0,-0.24254 -0.45,-0.7191 -1,-1.05902 -0.55,-0.33992 -1,-0.14148 -1,0.44098 0,0.58246 0.45,1.05902 1,1.05902 0.55,0 1,-0.19844 1,-0.44098 z m 63.3448,-7.68879 c 8.4154,-2.50487 8.6996,-2.71104 7.6176,-5.52648 -0.6555,-1.70581 -2.566,-2.56614 -9.1455,-4.11833 -4.5743,-1.07914 -8.4477,-1.85299 -8.6076,-1.71966 -0.7475,0.62321 1.1826,13.49424 2.0236,13.49424 0.5261,0 4.1765,-0.9584 8.1119,-2.12977 z m -59.3856,-36.48935 c 9.0874,-7.64653 7.3057,-19.8229 -3.5047,-23.95143 -5.8604,-2.23808 -10.9881,-0.86361 -15.3617,4.1177 -5.3576,6.10195 -3.7719,16.23881 3.2058,20.49333 4.8001,2.92683 11.7461,2.63428 15.6606,-0.6596 z m -13.7849,-5.69533 c -4.8643,-5.17787 -1.5082,-12.68555 5.6707,-12.68555 4.9595,0 7.5871,2.73961 7.4448,7.76188 -0.1921,6.77515 -8.4601,9.87906 -13.1155,4.92367 z m 50.7405,5.52877 c 4.2107,-3.14376 6.358,-6.83219 6.358,-10.92141 0,-8.45125 -5.9746,-14.28252 -14.6404,-14.28917 -4.3051,-0.003 -5.3068,0.43536 -8.6671,3.79567 -5.1029,5.10291 -5.9317,9.57271 -2.9263,15.78112 3.7881,7.82509 13.3214,10.52732 19.8758,5.63379 z m -13.2598,-6.04306 c -2.3225,-2.56636 -2.1333,-8.69293 0.345,-11.17126 2.6329,-2.63291 7.9642,-2.6137 10.8115,0.039 2.6069,2.42873 2.9049,7.49325 0.6318,10.73853 -2.034,2.90394 -9.2971,3.14655 -11.7883,0.39377 z m 47.3606,3.96564 c 12.6268,-6.75151 7.4312,-26.14851 -7,-26.13316 -9.9582,0.0106 -16.9167,11.39484 -12.2225,19.99626 4.0316,7.38718 12.0792,9.95643 19.2225,6.1369 z m -11.3807,-6.20948 c -2.0008,-1.57384 -2.6312,-2.95751 -2.6196,-5.75 0.018,-4.23941 0.6414,-5.43413 3.669,-7.02772 3.1956,-1.68202 5.7089,-1.41482 8.6809,0.92288 2.0323,1.59866 2.6348,2.95404 2.6348,5.92742 0,2.97338 -0.6025,4.32876 -2.6348,5.92742 -1.4492,1.13992 -3.6385,2.07258 -4.8652,2.07258 -1.2266,0 -3.416,-0.93266 -4.8651,-2.07258 z m -42.049,-20.39171 c 4.4443,-2.91204 6.5764,-7.44632 6.0988,-12.97029 -0.3654,-4.22744 -1.0127,-5.48133 -4.5169,-8.75 -3.5629,-3.32347 -4.7078,-3.81457 -8.8791,-3.80883 -15.1448,0.0208 -19.7448,19.31638 -6.2688,26.29577 4.0252,2.08466 9.7041,1.76373 13.566,-0.76665 z m -11.1907,-4.96552 c -2.9555,-1.28655 -4.3505,-3.7909 -4.3815,-7.86564 -0.022,-2.89918 4.5108,-6.70455 7.9863,-6.70455 3.5708,0 8,3.82433 8,6.90749 0,3.59746 -2.2191,6.97326 -5.287,8.04273 -1.6563,0.57738 -3.0568,1.03217 -3.1122,1.01064 -0.055,-0.0215 -1.4979,-0.64733 -3.2056,-1.39067 z m -23.3424,2.61231 c 6.3675,-6.3675 6.5187,-13.54437 0.4139,-19.64917 -6.0829,-6.08285 -14.5289,-5.6433 -20.4167,1.06252 -2.4367,2.77523 -3.05,4.38161 -3.05,7.98861 0,8.91811 5.4701,14.40497 14.3677,14.4118 4.3091,0.003 5.3056,-0.43428 8.6851,-3.81376 z m -14.8785,-4.49695 c -2.5557,-2.72048 -2.8266,-7.30924 -0.6176,-10.46304 2.126,-3.03524 9.3023,-3.14076 11.9852,-0.17622 2.5982,2.87102 2.2983,8.85493 -0.5598,11.1693 -3.1348,2.53841 -8.1565,2.29213 -10.8078,-0.53004 z m 86.3512,6.29869 c 9.4815,-5.8599 7.8882,-20.20082 -2.7157,-24.44368 -9.3061,-3.72357 -18.8098,2.8242 -18.8098,12.95944 0,10.74442 12.1951,17.25073 21.5255,11.48424 z m -13.4529,-6.6191 c -4.4674,-5.67932 -1.3462,-12.36514 5.7724,-12.36514 4.8581,0 7.555,2.74105 7.555,7.67858 0,6.95083 -9.0445,10.13133 -13.3274,4.68656 z m 49.5609,5.0045 c 4.0611,-1.92712 6.0454,-4.49823 7.433,-9.63123 1.358,-5.02368 -1.5355,-11.83458 -6.2485,-14.708 -9.7472,-5.94272 -22.9747,2.34514 -21.3296,13.36432 1.4764,9.88817 11.2334,15.20377 20.1451,10.97491 z m -10.9986,-6.44222 c -2.0008,-1.57384 -2.6312,-2.95751 -2.6196,-5.75 0.018,-4.23941 0.6414,-5.43413 3.669,-7.02772 3.1956,-1.68202 5.7089,-1.41482 8.6809,0.92288 2.0323,1.59866 2.6348,2.95404 2.6348,5.92742 0,2.97338 -0.6025,4.32876 -2.6348,5.92742 -1.4492,1.13992 -3.6385,2.07258 -4.8652,2.07258 -1.2266,0 -3.416,-0.93266 -4.8651,-2.07258 z m -77.706,-20.67897 c 9.8458,-5.02048 10.4695,-17.7682 1.1732,-23.97852 -9.3627,-6.25469 -21.0892,0.38452 -21.0983,11.94527 -0,3.88017 0.5621,5.35971 3.1915,8.35448 5.0227,5.72048 10.4078,6.90437 16.7336,3.67877 z m -9.6135,-5.25543 c -4.9157,-1.98058 -5.9063,-9.59646 -1.6805,-12.92044 2.9719,-2.3377 5.4853,-2.6049 8.6809,-0.92288 3.0084,1.58351 3.6536,2.79324 3.6536,6.8503 0,4.05706 -0.6452,5.26679 -3.6536,6.8503 -2.532,1.3327 -3.974,1.3621 -7.0004,0.14272 z m 49.6836,2.50793 c 6.3427,-6.07671 6.1391,-14.5385 -0.49,-20.35888 -6.2,-5.44367 -13.2413,-5.16224 -18.9112,0.75587 -6.3847,6.66419 -5.0918,16.29439 2.8594,21.29844 4.5775,2.8808 12.6263,2.05585 16.5418,-1.69543 z m -14.999,-4.50095 c -2.6144,-2.61443 -2.7115,-9.04611 -0.1712,-11.34501 2.524,-2.28419 9.3855,-2.18066 11.5162,0.17375 0.9103,1.00581 1.655,3.48081 1.655,5.5 0,4.7778 -2.8288,7.67126 -7.5,7.67126 -2.1667,0 -4.2619,-0.7619 -5.5,-2 z m 49.5859,3.53571 c 4.4443,-2.91204 6.5764,-7.44632 6.0988,-12.97029 -0.3654,-4.22744 -1.0127,-5.48133 -4.5169,-8.75 -3.5294,-3.29214 -4.7309,-3.81542 -8.761,-3.81542 -15.1536,0 -19.8476,19.33093 -6.3869,26.30236 4.0252,2.08466 9.7041,1.76373 13.566,-0.76665 z m -12.1862,-5.30102 c -1.6446,-1.09815 -3.3997,-4.82254 -3.3997,-7.2144 0,-1.16116 1.1046,-3.21574 2.4546,-4.56574 3.297,-3.29703 7.8421,-3.24881 11.2098,0.11892 2.1471,2.14707 2.4747,3.18207 1.9774,6.24672 -0.3279,2.02028 -1.3674,4.23723 -2.3101,4.92653 -1.8624,1.36184 -8.1599,1.67124 -9.932,0.48797 z m -43.6405,-18.22929 c 4.2108,-2.56739 7.2333,-7.58393 7.2333,-12.0054 0,-1.925 -0.8942,-4.96661 -1.9871,-6.75914 -4.9923,-8.18802 -15.1369,-9.57597 -21.7387,-2.97419 -6.6018,6.60177 -5.2138,16.74643 2.9742,21.73873 1.7925,1.09292 4.8341,1.98712 6.7591,1.98712 1.925,0 4.9666,-0.8942 6.7592,-1.98712 z m -10.4438,-4.97454 c -1.2016,-0.50492 -2.6641,-1.81385 -3.25,-2.90871 -4.1749,-7.80093 5.211,-15.76767 12.0511,-10.22891 2.7703,2.24325 3.2756,9.14325 0.8474,11.57145 -1.9325,1.93252 -6.8697,2.73393 -9.6485,1.56617 z m 47.4824,3.34083 c 3.5003,-2.25518 6.1947,-7.41872 6.1947,-11.87169 0,-14.17397 -19.4422,-19.02207 -26.1294,-6.5156 -3.8222,7.14835 -1.2481,14.94383 6.2109,18.80926 4.8096,2.49243 9.4202,2.35067 13.7238,-0.42197 z m -13.7252,-7.00655 c -1.1399,-1.44917 -2.0726,-3.63848 -2.0726,-4.86514 0,-1.22666 0.9327,-3.41597 2.0726,-4.86514 1.5987,-2.03236 2.954,-2.63486 5.9274,-2.63486 6.1935,0 9.7308,5.84322 6.8503,11.31574 -1.5936,3.02757 -2.7883,3.65129 -7.0277,3.66895 -2.7925,0.0116 -4.1762,-0.61874 -5.75,-2.61955 z"
       style="fill:#bb1d23" />
    <path
       inkscape:connector-curvature="0"
       id="path4091"
       d="m 1272.9086,-279.84232 c -14.1561,-3.07868 -26.5694,-9.81534 -36.8975,-20.0242 -7.8379,-7.74746 -12.8721,-15.5761 -17.147,-26.66546 l -2.8208,-7.31717 -0.2793,-164 c -0.2474,-145.19585 -0.1015,-164.80758 1.2722,-171.04327 6.1752,-28.03193 31.0245,-50.22323 60.8904,-54.37723 10.7334,-1.4929 221.5,-1.4929 232.2335,0 29.8658,4.154 54.7151,26.3453 60.8904,54.37723 1.3736,6.23569 1.5195,25.84742 1.2722,171.04327 l -0.2794,164 -3.1886,8.27315 c -9.1528,23.74803 -28.8688,40.42228 -54.1255,45.77513 -9.5804,2.03046 -232.4693,1.99225 -241.8206,-0.0414 z m 235.4972,-2.54882 c 27.0711,-3.39443 48.8946,-20.82632 57.7212,-46.10578 l 2.9163,-8.35223 0.278,-160 c 0.1907,-109.75032 -0.057,-162.18154 -0.7895,-166.94624 -3.7105,-24.14462 -21.9,-44.93946 -46.7104,-53.40106 l -7.7781,-2.6527 -120,0 -120,0 -7.778,2.6527 c -24.8098,8.4613 -42.9955,29.25129 -46.7119,53.40106 -0.7342,4.77106 -0.9814,57.04948 -0.7895,166.94624 l 0.2794,160 3.0853,8.61775 c 8.8549,24.7333 30.7434,42.45514 56.576,45.80633 9.654,1.25239 219.7363,1.28342 229.7012,0.0339 z m -221.3625,-98.0693 c -2.2,-0.50072 -5.2867,-1.43049 -6.8593,-2.06616 -2.5916,-1.04754 -2.812,-1.50886 -2.3535,-4.92706 0.6522,-4.8627 9.4855,-18.4413 17.7299,-27.25456 7.2861,-7.7889 21.7811,-17.80163 34.1861,-23.61483 4.7254,-2.21436 9.0396,-4.0261 9.5872,-4.0261 0.8952,0 2.6481,3.05042 1.9832,3.45105 -0.1505,0.0906 -3.1986,1.37959 -6.7736,2.86434 -3.575,1.48475 -8.075,3.70868 -10,4.94208 l -3.5,2.24253 6.7874,0.29654 6.7875,0.29655 6.1863,-5.51063 6.1864,-5.51063 2.4085,2.21408 c 2.656,2.44154 7.1188,11.19565 7.1341,13.99422 0.01,0.97908 -1.179,4.57908 -2.632,8 -5.0498,11.88909 -3.1844,21.20182 5.0276,25.09865 4.5103,2.14026 25.4289,3.84558 37.6142,3.06638 13.569,-0.86768 33.588,-4.16932 38.527,-6.35409 10.2328,-4.52643 15.6741,-12.91669 13.5332,-20.8674 -2.9908,-11.1072 -14.2,-18.22367 -28.7042,-18.22367 -8.5945,0 -15.3216,2.7756 -24.356,10.04935 -10.1039,8.13483 -18.3718,12.17618 -24.0699,11.76535 -3.6836,-0.26559 -4.721,-0.84498 -6.6474,-3.71258 -1.2555,-1.86884 -2.2783,-4.79384 -2.2729,-6.5 0.013,-4.03012 4.0016,-12.4353 7.377,-15.54444 1.4584,-1.34327 4.0773,-4.66416 5.8199,-7.37974 2.7504,-4.28619 3.1657,-5.81061 3.1484,-11.55768 -0.018,-5.99249 0.7206,-8.06055 2.8949,-8.10495 0.4125,-0.008 0.75,0.79726 0.75,1.79041 0,0.99315 1.1544,3.35565 2.5654,5.25 1.411,1.89435 5.4882,8.27927 9.0605,14.1887 l 6.495,10.74442 2.9396,-1.5201 c 1.6167,-0.83606 2.9395,-1.77733 2.9395,-2.09172 0,-2.6486 -9.6723,-18.04873 -15.5795,-24.80553 -6.153,-7.038 -7.1061,-8.58751 -5.8985,-9.58973 1.1586,-0.96159 1.4929,-5.52585 1.7092,-23.33856 0.2294,-18.89669 0.4887,-22.1432 1.7688,-22.1432 1.2781,0 1.54,3.15888 1.7702,21.34925 0.2503,19.78189 0.3972,21.29774 2,20.64771 0.9514,-0.38584 2.886,-1.12117 4.2991,-1.63408 l 2.5693,-0.93255 -0.069,-20.95988 -0.069,-20.95988 -2.4342,-0.005 c -1.3389,-0.003 -4.4206,-0.96685 -6.8483,-2.14209 -3.6753,-1.77918 -5.5483,-2.0417 -11.1914,-1.56861 -3.9654,0.33245 -8.3786,1.42646 -10.6369,2.6368 -2.1227,1.13774 -5.0322,2.06861 -6.4654,2.06861 -1.4333,0 -4.7898,0.65726 -7.459,1.46057 -4.0535,1.21993 -7.0204,1.27845 -18.007,0.35521 l -13.1539,-1.10537 -1.1945,-4.66079 -1.1945,-4.66078 -8.9574,-1.89786 c -4.9266,-1.0441 -8.9575,-2.31598 -8.9575,-2.82667 0,-0.51069 0.965,-2.48991 2.1445,-4.39828 2.5791,-4.17318 2.3726,-4.37322 -7.6445,-7.40632 -3.85,-1.16574 -7.3928,-2.47649 -7.873,-2.91277 -0.4801,-0.43628 1.0949,-1.35374 3.5,-2.0388 7.7187,-2.19854 7.5425,-2.43282 -6.127,-8.14543 -2.4396,-1.01953 -2.4033,-1.06633 1.5,-1.93648 2.2,-0.49044 5.8,-1.37541 8,-1.9666 l 4,-1.0749 -6.2906,-3.17738 -6.2905,-3.17738 11.5075,-2.41481 c 6.3292,-1.32814 11.3251,-2.59727 11.1021,-2.82027 -0.223,-0.22301 -3.9206,-1.21732 -8.217,-2.20959 l -7.8115,-1.80413 5.125,-0.0907 c 2.8188,-0.0499 6.5977,-0.38526 8.3977,-0.74526 l 3.2727,-0.65455 -5.8122,-2.61793 -5.8123,-2.61793 9.4145,-2.90863 9.4146,-2.90865 -5.5,-0.89801 c -9.532,-1.55633 -10.1097,-2.2659 -2.9526,-3.62682 10.8066,-2.05489 10.9835,-2.20204 4.9219,-4.09437 l -5.4693,-1.70741 6.25,-1.2857 c 3.4375,-0.70714 6.25,-1.64449 6.25,-2.08302 0,-0.43852 -1.1857,-1.72997 -2.6348,-2.86989 l -2.6349,-2.07258 2.5531,0 c 5.8364,0 6.2336,-1.25775 1.1332,-3.58766 l -4.9166,-2.24588 6.5,-0.1165 c 6.2796,-0.11255 6.4303,-0.17473 4.4457,-1.83323 -1.1298,-0.9442 -3.1548,-2.4672 -4.5,-3.38444 -2.4145,-1.64645 -2.3947,-1.65632 1.5543,-0.77386 5.7603,1.28722 7.4056,1.09654 4.5,-0.52155 -2.6683,-1.486 -2.3906,-1.73146 3.4071,-3.01183 2.87,-0.63381 2.8254,-0.69228 -3.5,-4.58297 -7.1159,-4.37696 -7.0107,-4.53952 1.5929,-2.46208 9.6513,2.33039 10.0866,2.20523 7.4075,-2.12967 l -2.2556,-3.64967 4.6741,0.52683 c 2.5707,0.28976 4.674,0.32569 4.674,0.0799 0,-0.24584 -1.3586,-2.42163 -3.0191,-4.83507 l -3.019,-4.38809 4.769,1.44709 c 6.2852,1.90712 6.414,1.88089 5.0852,-1.03549 -1.4831,-3.25516 -0.8752,-3.72182 2.9617,-2.27355 1.7302,0.65309 3.349,0.98276 3.5973,0.73261 0.2482,-0.25017 0.08,-2.47984 -0.3751,-4.95484 -0.4545,-2.475 -0.699,-4.62899 -0.5432,-4.78665 0.1558,-0.15766 2.5778,0.61779 5.3823,1.72323 l 5.0991,2.00988 0.6598,-4.97323 c 0.3628,-2.73528 0.8581,-4.97323 1.1007,-4.97323 0.2425,0 2.4109,1.35531 4.8185,3.0118 l 4.3775,3.01181 0.3027,-5.26181 0.3026,-5.2618 3.6579,5.3498 3.6578,5.3498 0.9379,-5.3498 0.9378,-5.3498 2.495,5.42548 2.495,5.42548 0.6483,-3.92548 c 0.3566,-2.15901 0.6825,-5.27548 0.7242,-6.92548 0.068,-2.66931 0.3039,-2.42129 2.1449,2.25 1.138,2.8875 2.4139,5.25 2.8354,5.25 0.4215,0 1.3346,-2.3625 2.0292,-5.25 l 1.2628,-5.25 1.4494,4.3375 c 1.6422,4.91442 2.1562,4.66368 4.7248,-2.30479 l 1.831,-4.96729 1.8279,5.37753 c 1.0053,2.95764 2.0365,5.58613 2.2914,5.84109 0.255,0.25497 1.2412,-1.16714 2.1917,-3.16023 0.9504,-1.9931 1.9822,-3.62073 2.2928,-3.61698 0.3107,0.004 1.65,1.6002 2.9764,3.54764 2.5845,3.79485 3.9868,3.26759 4.1342,-1.55447 0.051,-1.65998 0.6671,-0.65196 1.8343,3 l 1.7579,5.5 3.087,-6 c 3.4141,-6.63583 3.503,-6.56192 4.7148,3.92097 0.3128,2.70653 0.8002,5.1523 1.0829,5.43502 0.2827,0.28273 2.3058,-1.23553 4.4957,-3.37391 l 3.9816,-3.88798 0,5.70295 c 0,3.13662 0.2395,5.70295 0.5321,5.70295 0.2927,0 2.2052,-0.71417 4.25,-1.58704 9.0273,-3.85346 8.5806,-4.07443 5.2203,2.58238 -1.6513,3.2712 -3.0024,6.19304 -3.0024,6.49299 0,0.29995 2.2948,-0.61747 5.0995,-2.03872 2.8046,-1.42124 5.2953,-2.38821 5.5346,-2.14882 0.2394,0.23939 -0.019,2.40715 -0.5749,4.81723 -1.6097,6.98202 -1.5077,7.15143 2.9408,4.88198 4.3546,-2.22156 4.3526,-2.22373 3.0815,3.25 -0.7993,3.44175 -0.6946,3.74804 1.2738,3.72614 1.1796,-0.0131 3.9447,-0.43558 6.1447,-0.93879 l 4,-0.91494 -4.5,3.99261 -4.5,3.99261 6.75,-0.35121 c 3.7125,-0.19316 6.75,-0.29538 6.75,-0.22716 0,0.0682 -2.7545,2.11456 -6.1211,4.5474 l -6.1212,4.42334 5.6616,1 5.6616,1 -5.0405,4.96241 c -2.7722,2.72932 -5.0404,5.31682 -5.0404,5.75 0,0.43317 1.4625,0.83245 3.25,0.88727 1.7875,0.0548 4.3585,0.40871 5.7133,0.78642 2.4538,0.6841 2.4486,0.69795 -1.3562,3.59999 -3.3507,2.55575 -3.5916,3.00284 -1.9632,3.6433 1.0208,0.40152 4.1818,0.76167 7.0243,0.80032 8.6128,0.11713 9.0459,0.80702 3.2307,5.14575 -2.8327,2.11344 -5.4312,4.14549 -5.7746,4.51566 -0.3433,0.37018 3.4257,0.45528 8.3757,0.18911 l 9,-0.48394 -8.75,4.08616 c -4.8125,2.24738 -8.75,4.36339 -8.75,4.70224 0,0.33885 4.3875,1.04088 9.75,1.56007 l 9.75,0.94397 -6.9079,3.37381 -6.908,3.37381 2.908,2.32686 c 1.5993,1.27977 3.3579,2.33598 3.9079,2.34714 2.1496,0.0436 -2.1447,1.95994 -4.4243,1.97434 l -2.4243,0.0153 2.0255,2.25 c 3.9153,4.34913 3.7456,4.6491 -2.278,4.0274 -5.481,-0.56568 -5.6018,-0.5251 -4.51,1.51498 0.617,1.15293 1.5695,2.37285 2.1165,2.71094 2.0956,1.29513 0.7782,2.25843 -5.3612,3.92028 l -6.3558,1.72044 1.852,9.02958 c 1.0187,4.96626 1.6022,9.43385 1.2968,9.92798 -0.3053,0.49412 -2.9925,0.8984 -5.9714,0.8984 -5.4008,0 -5.4135,0.007 -4.441,2.5651 0.5364,1.4108 0.9752,2.72241 0.9752,2.91468 0,0.19227 -3.337,0.66229 -7.4157,1.04449 -6.1345,0.57485 -8.51,0.33243 -13.75,-1.40328 -14.7121,-4.87326 -34.7731,-7.64699 -36.3896,-5.03141 -0.3704,0.59928 -2.5345,1.91749 -4.8091,2.92937 -2.2745,1.01188 -3.5731,1.87156 -2.8856,1.91041 0.9549,0.054 1.25,4.67498 1.25,19.57064 0,10.725 0.3056,19.5 0.679,19.5 0.3735,0 2.061,-0.49926 3.75,-1.10948 l 3.071,-1.10947 0,-19.14053 c 0,-16.34713 0.2189,-19.14052 1.5,-19.14052 1.1667,0 1.6111,1.77778 2,8 0.4599,7.35743 0.6807,8.02567 2.75,8.31955 2.1717,0.30843 2.25,0.0425 2.25,-7.64301 0,-5.9086 0.3617,-8.10136 1.4023,-8.50065 2.2797,-0.87484 2.5977,0.22951 2.5977,9.02216 0,5.81973 0.3803,8.48189 1.25,8.74981 0.6875,0.2118 2.4875,0.65625 4,0.98767 l 2.75,0.60257 0,-10.01905 c 0,-9.35237 0.1331,-10.01904 2,-10.01904 1.8733,0 2,0.66667 2,10.52475 0,10.3775 0.036,10.5384 2.5651,11.5 1.4108,0.53639 2.9689,0.97525 3.4625,0.97525 0.4936,0 1.0268,-4.1625 1.1849,-9.25 0.2309,-7.42777 0.583,-9.25 1.7875,-9.25 1.2163,0 1.5537,1.92224 1.7841,10.16404 l 0.284,10.16404 3.1152,1.08596 c 1.7133,0.59728 3.2555,1.08596 3.427,1.08596 0.1715,0 0.4419,-3.93244 0.6008,-8.73875 0.2517,-7.61383 0.5297,-8.78479 2.1591,-9.09647 1.7471,-0.33417 1.8438,0.30025 1.4687,9.6377 l -0.4014,9.99542 5.1995,2.55012 5.1996,2.55012 4.2285,-5.6006 c 10.1457,-13.43781 24.146,-26.02143 36.4349,-32.74809 l 5,-2.73687 -5,4.31713 c -14.8117,12.78884 -32.9467,32.65904 -35.2245,38.59489 -0.44,1.14651 7.2115,9.12731 8.8534,9.23439 0.3458,0.0225 3.2166,-3.39723 6.3795,-7.59952 7.4294,-9.87084 11.5705,-14.41612 17.874,-19.61865 5.1871,-4.28121 5.0275,-3.80716 -1.434,4.25918 -5.2626,6.56969 -9.3948,12.85533 -13.8554,21.07586 l -3.9458,7.27194 4.4471,6.23217 c 8.2901,11.6175 15.4145,28.22698 19.3801,45.18165 2.0742,8.86797 2.7202,8.59719 -18.7437,7.85631 -10.3019,-0.3556 -22.8274,-0.91369 -27.8345,-1.2402 l -9.1039,-0.59365 -0.5681,4.23592 c -1.237,9.22221 -14.6156,17.72062 -32.2242,20.46949 -5.5,0.8586 -11.4422,1.7913 -13.2049,2.07265 -4.7284,0.75475 -32.332,0.65386 -40.4686,-0.1479 -5.6715,-0.55886 -8.0247,-1.35583 -12.0992,-4.09775 l -5.0582,-3.40396 -10.5846,3.95041 c -19.3507,7.22219 -39.7476,9.9474 -52.5845,7.02577 z m 18.2664,-8.29498 c 1.7785,-2.97345 3.2335,-5.56095 3.2334,-5.75 -2e-4,-0.18905 -4.887,-0.41399 -10.8596,-0.49986 l -10.8593,-0.15613 -1.6404,3.44006 c -0.9023,1.89203 -1.6405,3.84251 -1.6405,4.33441 0,0.85741 7.1969,2.66589 13.5,3.39236 1.65,0.19017 3.4574,0.41319 4.0164,0.4956 0.559,0.0824 2.4715,-2.28299 4.25,-5.25644 z m 15.067,2.43833 c 6.6171,-1.69854 21.2804,-6.42955 26.2684,-8.47532 1.0657,-0.43708 1.445,-1.47684 1.1334,-3.10684 -0.5811,-3.03966 -1.5089,-3.04638 -18.5752,-0.13443 l -12.84,2.19083 -3.3837,5.74685 c -3.9285,6.67221 -3.9105,6.68145 7.3971,3.77891 z m -8.3277,-13.79737 c 0.9831,-0.71818 5.4074,-6.50082 6.8742,-8.98469 0.5721,-0.96877 -1.7199,-1.25 -10.1871,-1.25 l -10.9252,0 -3.6784,4.72129 c -3.2855,4.21719 -3.4867,4.79693 -1.8837,5.42971 2.397,0.94628 18.5261,1.01444 19.8002,0.0837 z m 23.1553,-2.80483 c 9.2554,-1.36062 11.2443,-1.95968 11.6494,-3.50885 0.6369,-2.43541 -2.9843,-3.13258 -14.1555,-2.72528 l -8.3451,0.30427 -2.5373,4.30229 -2.5373,4.30229 2.3824,-0.51699 c 1.3103,-0.28435 7.4048,-1.25532 13.5434,-2.15773 z m 14.5586,-14.16811 c 0.9372,-2.60604 1.3836,-5.03564 0.9922,-5.39911 -0.3915,-0.36347 -3.8855,-0.968 -7.7644,-1.34341 l -7.0526,-0.68256 -3.6974,4.74577 c -2.0336,2.61018 -3.6974,5.09947 -3.6974,5.53177 0,0.71194 4.0676,1.15698 15.5079,1.69671 3.9242,0.18513 4.0434,0.0902 5.7117,-4.54917 z m 128.7651,2.48825 c -0.038,-3.11883 -1.4732,-3.44895 -7.4847,-1.72186 -5.8733,1.6874 -5.9261,1.73358 -2.5,2.18778 7.0538,0.93513 10.0002,0.79764 9.9847,-0.46592 z m 25.1777,-3.25 c -0.1858,-2.2 -0.7318,-4.41105 -1.2135,-4.91345 -0.9377,-0.97802 -17.8514,1.9394 -19.2468,3.31985 -0.4388,0.43414 -0.2471,1.99815 0.4261,3.47556 1.2187,2.67472 1.2649,2.685 10.7979,2.40213 l 9.5739,-0.28409 -0.3376,-4 z m -176.8741,-0.94046 c 2.0414,-2.44225 3.7117,-4.73702 3.7117,-5.0995 0,-0.36247 -3.9504,-0.50176 -8.7786,-0.30954 -8.548,0.34032 -8.9072,0.45462 -13.6698,4.3495 l -4.8912,4 6.4198,0.5774 c 13.6915,1.23142 13.1447,1.34318 17.2081,-3.51786 z m 138.7117,0.18248 c 4.675,-1.6857 8.8591,-3.3738 9.2979,-3.75134 1.0667,-0.91772 -1.3025,-5.99068 -2.7978,-5.99068 -2.3803,0 -17.9829,10.55287 -18.3394,12.4039 -0.2868,1.48965 0.027,1.7313 1.4879,1.14547 1.0183,-0.40834 5.6764,-2.12165 10.3514,-3.80735 z m -87.5772,2.38286 c 0.6175,-0.99902 -8.1661,-3.71489 -9.075,-2.806 -0.3272,0.32718 -0.3284,1.28927 -0,2.13799 0.6463,1.68423 8.1102,2.23348 9.0777,0.66801 z m 8.9374,-4.59752 c 1.8074,-1.36899 1.8026,-1.48888 -0.1687,-4.2182 -1.1159,-1.54504 -4.0945,-4.81931 -6.6191,-7.27615 l -4.5903,-4.46699 -3.241,3.8941 c -5.2299,6.28363 -6.0654,9.50392 -2.4911,9.60097 1.2375,0.0336 4.725,0.88744 7.75,1.89741 6.8302,2.28045 7.0805,2.29566 9.3602,0.56886 z m 73.7886,-5.66763 c 4.8986,-2.82714 9.1167,-5.48027 9.3735,-5.89583 0.2569,-0.41556 -0.3751,-1.79548 -1.4043,-3.06648 l -1.8712,-2.31092 -5.3734,3.73726 c -9.5192,6.62072 -12.0458,9.06335 -11.3231,10.94674 0.3651,0.95123 0.8951,1.7295 1.1778,1.7295 0.2828,0 4.5221,-2.31312 9.4207,-5.14027 z m -63.1488,-2.39266 c 0,-0.43962 -10.5344,-17.9415 -12.4754,-20.72666 -1.0866,-1.55917 -1.5689,-1.06852 -4.2334,4.30744 l -3.0071,6.06703 3.3624,2.56464 c 1.8493,1.41055 4.9753,4.76191 6.9467,7.44745 l 3.5843,4.88281 2.9113,-2.07298 c 1.6012,-1.14014 2.9112,-2.25152 2.9112,-2.46973 z m 94.0116,2.10061 c 6.0854,-1.55998 9.3798,-2.8722 9.1855,-3.65883 -0.8404,-3.40253 -3.2212,-7.90885 -4.1783,-7.90885 -1.5117,0 -17.321,6.07024 -18.4131,7.07001 -1.1353,1.03925 1.2254,6.92999 2.7772,6.92999 0.6271,0 5.41,-1.09454 10.6287,-2.43232 z m -141.9791,-4.01508 c -1.2076,-1.95393 -2.3682,-3.5526 -2.5792,-3.5526 -0.211,0 -2.0545,1.4625 -4.0965,3.25 l -3.7129,3.25 5.9281,0.5 c 3.2604,0.275 6.0919,0.41117 6.2921,0.3026 0.2002,-0.10857 -0.624,-1.79607 -1.8316,-3.75 z m 106.0739,-4.13183 8.8363,-6.57922 -2.1594,-2.92078 c -1.1877,-1.60642 -2.3698,-2.92077 -2.6269,-2.92077 -0.5759,0 -5.8071,3.87633 -13.3764,9.91179 l -5.72,4.56094 2.72,2.22767 c 1.496,1.22522 2.8933,2.24386 3.1051,2.26364 0.2117,0.0198 4.3614,-2.92469 9.2213,-6.54327 z m -14.8564,-2.96129 c 3.2581,-3.02903 3.75,-4.07496 3.75,-7.97294 0,-3.61307 -0.342,-4.48654 -1.757,-4.48654 -1.9744,0 -19.1849,4.60856 -19.9069,5.33061 -0.2558,0.25576 -0.1665,2.0566 0.1985,4.00186 0.6336,3.37778 0.9401,3.60198 6.8145,4.98526 3.383,0.79663 6.3759,1.48886 6.6509,1.53829 0.275,0.0494 2.1875,-1.47902 4.25,-3.39654 z m 53.75,-7.01826 c 0,-0.2973 -0.6862,-1.86757 -1.5249,-3.48949 l -1.525,-2.94895 -8.1995,4.12262 c -4.5097,2.26744 -9.2068,4.78263 -10.4379,5.5893 l -2.2384,1.46668 2.1049,2.84713 2.105,2.84712 9.8579,-4.94693 c 5.4219,-2.72081 9.8579,-5.19018 9.8579,-5.48748 z m -76.1772,4.6706 c 0.3025,-3.15337 0.1637,-3.32524 -2.2059,-2.73052 -3.956,0.99289 -7.6169,2.51153 -7.6169,3.15969 0,0.32477 0.4297,1.39337 0.9549,2.37467 0.7605,1.42107 1.7272,1.65975 4.75,1.17276 3.4314,-0.55282 3.8261,-0.93392 4.1179,-3.9766 z m -5.707,-5.84654 c 4.8111,-1.70874 4.8842,-1.79859 4.8842,-6 0,-2.3459 -0.3375,-4.26983 -0.75,-4.2754 -1.8818,-0.0254 -13.25,4.47445 -13.25,5.24471 0,1.27594 2.9547,6.76541 3.6415,6.76541 0.3245,0 2.788,-0.78062 5.4743,-1.73472 z m 65.6851,-4.26528 c 5.0588,-3.025 9.1981,-6.0074 9.1985,-6.62756 3e-4,-0.62015 -0.7042,-1.71252 -1.5657,-2.42748 -1.3225,-1.09762 -3.1267,-0.53305 -11.5924,3.62756 -5.5144,2.71011 -10.2567,5.29829 -10.5385,5.75151 -0.5646,0.90809 3.7156,5.87628 4.6912,5.44518 0.335,-0.14806 4.7482,-2.74421 9.8069,-5.76921 z m -22.0302,0.5 c 7.1238,-4.77896 6.8813,-5.16644 -2.1039,-3.36195 -5.5397,1.11252 -5.6668,1.21347 -5.6668,4.5 0,1.84907 0.2392,3.36195 0.5314,3.36195 0.2923,0 3.55,-2.025 7.2393,-4.5 z m -13.0867,-9.81978 c -0.2837,-2.11497 -0.7693,-4.09888 -1.0791,-4.40871 -0.6825,-0.68251 -19.5166,4.77669 -20.1795,5.84916 -0.2576,0.41689 -0.1898,2.50034 0.1507,4.62988 l 0.6192,3.8719 10.5022,-3.04842 10.5022,-3.04841 -0.5157,-3.8454 z m -34.6677,1.42178 7.4837,-2.898 -0.2555,-5.352 c -0.4128,-8.64487 -0.9565,-10.07523 -3.5278,-9.28051 -5.0617,1.56445 -18.3184,6.53003 -19.6124,7.34623 -1.1025,0.69549 -0.389,2.1616 3.3976,6.98132 2.6362,3.35553 4.8466,6.10096 4.9119,6.10096 0.065,0 3.4864,-1.3041 7.6025,-2.898 z m 51.555,-1.11666 c 5.3852,-1.10806 9.9776,-2.20088 10.2052,-2.42849 0.2276,-0.22761 0.1103,-1.79602 -0.2608,-3.48534 -0.7886,-3.59057 -2.4711,-3.80965 -14.9748,-1.94995 -7.3229,1.08914 -7.5409,1.20241 -7.5409,3.91821 0,3.29058 0.8945,5.96023 1.9969,5.96023 0.4306,0 5.1891,-0.9066 10.5744,-2.01466 z m 19.5795,-3.56329 3.0514,-1.57795 -2.2754,-2.42205 c -2.1769,-2.31721 -6.9268,-3.37806 -6.9268,-1.54705 0,2.61677 1.376,7.125 2.1747,7.125 0.5085,0 2.2978,-0.71008 3.9761,-1.57795 z m -47.839,-3.04433 c 5.0535,-1.44225 9.3259,-2.74247 9.4943,-2.88938 0.336,-0.29327 -2.7256,-12.54913 -3.4126,-13.6607 -0.3514,-0.5685 -7.7447,1.11271 -16.6679,3.79022 -1.5067,0.45207 -1.6862,1.31365 -1.1896,5.7073 0.7663,6.77989 1.3782,9.67484 2.0449,9.67484 0.2985,0 4.6774,-1.18003 9.7309,-2.62228 z m 30.2644,-6.69529 6.0761,-1.18243 -0.8436,-3.20728 c -0.6988,-2.65616 -1.9147,-3.71708 -7.0762,-6.17408 -5.6174,-2.674 -6.7178,-2.87549 -11.1503,-2.04157 -2.7048,0.50887 -5.1205,1.12789 -5.3682,1.37558 -0.2477,0.2477 0.1435,3.43772 0.8692,7.08892 l 1.3195,6.63856 5.0487,-0.65763 c 2.7767,-0.3617 7.7829,-1.18973 11.1248,-1.84007 z m -33.7789,-12.90413 c 7.964,-2.17472 8.272,-2.36629 7.6687,-4.76996 -0.3457,-1.37733 -0.7045,-2.56453 -0.7973,-2.63822 -0.5243,-0.4164 -17.2257,-4.0579 -17.5067,-3.8171 -0.5928,0.50806 1.0445,13.44606 1.7045,13.46899 0.3484,0.0121 4.3673,-0.99756 8.9308,-2.24371 z m -59.6952,-36.0609 c 6.9252,-4.6521 7.663,-15.15234 1.4979,-21.3174 -4.2535,-4.25354 -9.2164,-5.2001 -15.2278,-2.90434 -5.9016,2.25385 -8.3634,6.18761 -8.3684,13.37199 -0,4.90402 0.3316,5.70298 3.8786,9.25 3.5634,3.56342 4.3317,3.88235 9.3521,3.88235 4.0364,0 6.3602,-0.59815 8.8676,-2.2826 z m -13.6475,-6.17195 c -2.9997,-2.99969 -3.1314,-6.41533 -0.382,-9.91059 3.4557,-4.39317 10.2541,-3.46586 12.4239,1.69463 3.3966,8.07819 -5.8624,14.39546 -12.0419,8.21596 z m 48.9998,7.03808 c 9.0663,-3.78816 10.7154,-16.71522 2.9969,-23.49218 -2.9745,-2.6116 -4.3302,-3.09077 -8.7361,-3.08761 -6.4906,0.005 -10.7471,2.43642 -13.1582,7.51744 -3.3372,7.03265 -0.5163,15.14236 6.5141,18.72727 4.1559,2.11913 7.8727,2.2197 12.3833,0.33508 z m -11.4544,-7.58353 c -2.7854,-2.78541 -2.6322,-8.05738 0.3145,-10.82569 6.8392,-6.42512 17.0438,3.77046 10.6466,10.63713 -2.6485,2.84278 -8.2112,2.93847 -10.9611,0.18856 z m 47.6957,4.044 c 4.6387,-2.82839 6.6889,-6.52003 6.6889,-12.044 0,-8.84761 -6.1215,-14.38954 -15.1567,-13.72156 -17.8739,1.32144 -16.6624,27.71408 1.2721,27.71408 2.2048,0 5.4343,-0.87452 7.1957,-1.94852 z m -9.6957,-4.73264 c -5.718,-2.18173 -6.9814,-9.6076 -2.2658,-13.31694 4.9732,-3.91187 12.2658,-0.34124 12.2658,6.00558 0,4.94118 -5.5592,9.00575 -10,7.31136 z m -44.9224,-21.47514 c 9.1672,-5.15225 9.1769,-19.55055 0.016,-24.28767 -9.8498,-5.09354 -21.0904,1.54492 -21.0835,12.45145 0.01,10.94481 11.3322,17.30766 21.0673,11.83622 z m -13.0423,-7.51848 c -5.6596,-7.19507 4.086,-16.51159 10.7641,-10.29006 5.4366,5.06499 2.8966,12.21829 -4.5359,12.77427 -3.4133,0.25533 -4.375,-0.12826 -6.2282,-2.48421 z m -22.2251,6.65663 c 8.0643,-4.91668 7.9032,-18.18472 -0.286,-23.55049 -3.8824,-2.54385 -9.709,-2.90456 -14.003,-0.86691 -5.1264,2.43263 -7.5128,6.65813 -7.5174,13.31068 -0,4.90402 0.3316,5.70298 3.8786,9.25 3.547,3.54702 4.346,3.88203 9.25,3.87861 3.6183,-0.003 6.4464,-0.66145 8.6778,-2.02189 z m -13.3556,-6.42892 c -4.8304,-4.83034 -1.6023,-12.54545 5.2491,-12.54545 6.9964,0 10.2253,8.19332 5.1078,12.96104 -2.9814,2.77754 -7.3386,2.60269 -10.3569,-0.41559 z m 86.2469,6.49503 c 10.5826,-6.45259 7.068,-23.3047 -5.3461,-25.63358 -5.1092,-0.9585 -11.7719,1.91297 -14.4344,6.22089 -1.7464,2.82583 -2.0699,4.56305 -1.6939,9.09727 0.4053,4.88669 0.9309,6.0316 4.1042,8.9397 3.1631,2.8988 4.3283,3.33475 8.904,3.3315 3.4561,-0.002 6.3645,-0.67432 8.4662,-1.95578 z m -13.2469,-6.49503 c -2.9997,-2.99969 -3.1314,-6.41533 -0.382,-9.91059 3.6537,-4.64489 11.8954,-2.8831 13.3344,2.85044 0.7309,2.9124 -1.5104,7.95669 -3.9518,8.89352 -3.2508,1.24745 -6.6025,0.56472 -9.0006,-1.83337 z m 50.2411,4.49855 c 4.6387,-2.82839 6.6889,-6.52003 6.6889,-12.044 0,-8.84761 -6.1215,-14.38954 -15.1567,-13.72156 -17.8739,1.32144 -16.6624,27.71408 1.2721,27.71408 2.2048,0 5.4343,-0.87452 7.1957,-1.94852 z m -10.3803,-5.02945 c -4.9195,-2.03061 -5.9049,-9.61908 -1.6805,-12.94197 3.4952,-2.74937 6.9109,-2.61773 9.9106,0.38197 6.0057,6.00571 -0.4054,15.78977 -8.2301,12.56 z m -76.2709,-23.55713 c 4.0519,-3.88205 5.6218,-9.29017 4.1361,-14.24895 -1.7962,-5.99517 -6.1334,-9.46611 -12.4084,-9.93003 -9.1253,-0.67464 -14.9954,4.6897 -14.9261,13.64004 0.07,9.08489 5.8945,14.4708 14.9261,13.80308 4.13,-0.30534 5.922,-1.01244 8.2723,-3.26414 z m -12.5445,-3.58798 c -5.1123,-2.85804 -6.0304,-8.42997 -2.0454,-12.41489 4.8678,-4.86784 12.5454,-1.52454 12.5454,5.46304 0,5.72097 -5.815,9.57098 -10.5,6.95185 z m 48.135,4.21148 c 3.9859,-2.43051 6.8837,-9.5027 5.9446,-14.50835 -1.4027,-7.47694 -9.2072,-12.61541 -16.9537,-11.16217 -11.4845,2.1545 -15.0687,16.60352 -6.0771,24.49825 2.9744,2.6116 4.3302,3.09077 8.736,3.08761 3.3693,-0.002 6.3248,-0.68033 8.3502,-1.91534 z m -13.0001,-6.1535 c -5.5289,-4.34905 -2.3005,-12.92742 4.8651,-12.92742 4.5663,0 7.5,2.90531 7.5,7.42742 0,3.87524 -3.6619,7.57258 -7.5,7.57258 -1.2266,0 -3.4159,-0.93266 -4.8651,-2.07258 z m 47.9482,4.46612 c 9.5885,-4.55001 9.9058,-19.98665 0.5108,-24.84499 -6.8785,-3.55701 -16.3196,-0.88039 -19.6566,5.57283 -2.3195,4.48527 -1.5013,12.10186 1.6691,15.53875 4.7708,5.17191 11.4421,6.59703 17.4767,3.73341 z m -12.5478,-8.0758 c -5.6401,-7.17023 4.5127,-16.76977 10.9393,-10.34318 5.2205,5.22054 2.6284,12.27837 -4.7111,12.82739 -3.4133,0.25533 -4.375,-0.12826 -6.2282,-2.48421 z m -42.3183,-15.9877 c 12.8004,-6.07422 7.6964,-26.33004 -6.6347,-26.33004 -8.4198,0 -14.0748,5.62489 -14.0748,14 0,10.80802 10.6077,17.12364 20.7094,12.33004 z m -11.7939,-7.25312 c -3.181,-3.18096 -3.5079,-4.69931 -1.8128,-8.4196 1.1173,-2.45214 4.6749,-4.65732 7.5137,-4.65732 2.2795,0 7.376,5.52767 7.376,8 0,2.78367 -5.2163,8 -8,8 -1.1846,0 -3.4692,-1.31538 -5.0769,-2.92308 z m 46.4057,6.55905 c 1.7955,-0.75021 4.5286,-2.86619 6.0735,-4.70218 2.5301,-3.00692 2.7669,-3.91823 2.386,-9.18403 -0.352,-4.86583 -0.9293,-6.35229 -3.4436,-8.86659 -9.2092,-9.20928 -24.3447,-3.05233 -24.3447,9.90321 0,4.91484 3.3457,10.11363 8.02,12.46207 4.19,2.10514 6.97,2.20041 11.3088,0.38752 z m -10.418,-7.50713 c -1.6724,-1.35426 -2.3108,-2.9092 -2.3108,-5.62884 0,-6.9808 7.9224,-10.06852 12.9455,-5.04545 2.9997,2.99969 3.1313,6.41533 0.3819,9.91059 -2.5218,3.20604 -7.5684,3.55588 -11.0166,0.7637 z"
       style="fill:#0e280b" />
    <text
       xml:space="preserve"
       style="font-style:normal;font-weight:normal;font-size:60px;line-height:125%;font-family:sans-serif;letter-spacing:0px;word-spacing:0px;fill:#000000;fill-opacity:1;stroke:none;stroke-width:1px;stroke-linecap:butt;stroke-linejoin:miter;stroke-opacity:1"
       x="1511.5219"
       y="-647.71002"
       id="text3500"
       sodipodi:linespacing="125%"><tspan
         sodipodi:role="line"
         id="tspan3502"
         x="1511.5219"
         y="-647.71002">1</tspan></text>
  </g>
</svg>
