<?xml version="1.0" encoding="UTF-8" standalone="no"?>

<svg xmlns="http://www.w3.org/2000/svg">
<defs>
    <!-- Tile backgrounds and outlines -->
    <symbol id="UT" viewBox="0 0 65 84" >
        <rect style="fill:green;stroke:black;stroke-width:2;" x="0.5" y="0.5" rx="12" ry="12" width="64" height="83" />
    </symbol>
    <symbol id="backwhite" viewBox="0 0 65 84" >
        <rect style="fill:white;stroke:black;stroke-width:2;" x="1" y="1" rx="12" ry="12" width="63" height="82" />
    </symbol>
    <symbol id="tailback" viewBox="0 0 65 84" >
        <rect style="fill:brown;stroke:black;stroke-width:2;" x="0.5" y="0.5" rx="12" ry="12" width="64" height="83" />
    </symbol>
    <symbol id="US" viewBox="0 0 65 84" > <!-- tilesecret -->
        <use x="0" y="0" width="100%" height="100%" href="#UT" />
        <text x="12" y="68" fill="white" stroke="black" stroke-width="3" font-size="500%">?</text>
    </symbol>
    <symbol id="out" viewBox="0 0 65 84" >
        <rect fill="transparent" stroke-width="2"
        stroke-linecap="round" stroke-dasharray="0,6"
        x="0.5" y="0.5" rx="12" ry="12" width="64" height="83" />
    </symbol>

    <!-- Suit 'circle', a.k.a. 'cakes' -->
    <symbol id="bcakel" viewBox="0 0 100 100">
      <circle cx="50" cy="50" r="46" stroke="black" stroke-width="5" fill="white" />
      <circle cx="50" cy="50" r="34" stroke="#0f1938" stroke-width="12" fill="white" />
      <circle cx="50" cy="50" r="24" fill="#881c21" />
      <circle cx="50" cy="50" r="4" stroke="white" stroke-width="1" fill="none" />
      <circle id="lwhitec" cx="50" cy="43" r="2.5" fill="white" />
      <use href="#lwhitec" x="0" y="0" transform="rotate(72 50 50)" />
      <use href="#lwhitec" x="0" y="0" transform="rotate(144 50 50)" />
      <use href="#lwhitec" x="0" y="0" transform="rotate(216 50 50)" />
      <use href="#lwhitec" x="0" y="0" transform="rotate(288 50 50)" />
      <g id="ppetalq" >
        <g id="ppetal" >
          <path d="M48 40v-7l2-5l2 5v7h-1.5l-0.5-6l-0.5 6z" fill="white" />
        </g>
        <use href="#ppetal" x="0" y="0" transform="rotate(22.5 50 50)" />
        <use href="#ppetal" x="0" y="0" transform="rotate(45 50 50)" />
        <use href="#ppetal" x="0" y="0" transform="rotate(67.5 50 50)" />
      </g>
      <use href="#ppetalq" x="0" y="0" transform="rotate(90 50 50)" />
      <use href="#ppetalq" x="0" y="0" transform="rotate(180 50 50)" />
      <use href="#ppetalq" x="0" y="0" transform="rotate(270 50 50)" />
      <g id="hupetal">
        <path id="hpetal" d="M55 20a20 20 0 0 0 -10 0q-2 -4 0 -7c2-2 6-2 6 -1c0 0 -4 3 -2 5s6-3 7-2z" fill="white" />
        <use href="#hpetal" x="0" y="0" transform="rotate(22.5 50 50) translate(100,0) scale(-1,1)" />
      </g>
      <use href="#hupetal" x="0" y="0" transform="rotate(90 50 50)" />
      <use href="#hupetal" x="0" y="0" transform="rotate(180 50 50)" />
      <use href="#hupetal" x="0" y="0" transform="rotate(270 50 50)" />
      <defs>
        <path d="M51 19.5a20 20 0 0 0 -6 .5c0 0 -3-7 2-8c1 0 3-1 7 2c1 1 1 2 1 3c0 2 -6 -4 -6 -1z"
              id="fpetal" fill="white" />
      </defs>
      <g id="fppetal">
        <use href="#fpetal" x="0" y="0" transform="rotate(46 50 50)" />
        <use href="#fpetal" x="0" y="0" transform="rotate(66.5 50 50) translate(100,0) scale(-1,1)" />
      </g>
      <use href="#fppetal" x="0" y="0" transform="rotate(90 50 50)" />
      <use href="#fppetal" x="0" y="0" transform="rotate(180 50 50)" />
      <use href="#fppetal" x="0" y="0" transform="rotate(270 50 50)" />
    </symbol>
    <symbol id="bcakem" viewBox="0 0 100 100">
      <circle cx="50" cy="50" r="45" stroke="black" stroke-width="9" fill="white" />
      <circle cx="50" cy="50" r="23" stroke="#0f1938" stroke-width="23" fill="white" />
      <circle cx="50" cy="50" r="7" fill="#0f1938" />
      <g id="mpetal" transform="rotate(30 50 50)" >
        <path d="M41 27a9 8 0 0 1 18 0z" fill="white" stroke="white" stroke-width="1" />
        <path d="M41 27a9 10 0 0 0 18 0z" fill="white" stroke="white" stroke-width="1" />
        <path d="M48 38v-11a2 2 0 0 1 4 0v11z" fill="#0f1938" />
      </g>
      <use href="#mpetal" x="0" y="0" transform="rotate(60 50 50)" />
      <use href="#mpetal" x="0" y="0" transform="rotate(120 50 50)" />
      <use href="#mpetal" x="0" y="0" transform="rotate(180 50 50)" />
      <use href="#mpetal" x="0" y="0" transform="rotate(240 50 50)" />
      <use href="#mpetal" x="0" y="0" transform="rotate(300 50 50)" />
    </symbol>
    <symbol id="bcake" viewBox="0 0 100 100">
      <circle cx="50" cy="50" r="44" stroke="black" stroke-width="11" fill="white" />
      <circle cx="50" cy="50" r="23" stroke="#0f1938" stroke-width="23" fill="white" />
      <circle cx="50" cy="50" r="7" fill="#0f1938" />
      <path id="spetal" d="M41 31c0 -10 18 -10 18 0c0 5 -18 5 -18 0z" fill="white" />
      <use href="#spetal" x="0" y="0" transform="rotate(72 50 50)" />
      <use href="#spetal" x="0" y="0" transform="rotate(144 50 50)" />
      <use href="#spetal" x="0" y="0" transform="rotate(216 50 50)" />
      <use href="#spetal" x="0" y="0" transform="rotate(288 50 50)" />
    </symbol>
    <symbol id="rcake" viewBox="0 0 100 100">
      <circle cx="50" cy="50" r="44" stroke="black" stroke-width="11" fill="white" />
      <circle cx="50" cy="50" r="23" stroke="#881c21" stroke-width="23" fill="white" />
      <circle cx="50" cy="50" r="7" fill="#881c21" />
      <use href="#spetal" x="0" y="0" />
      <use href="#spetal" x="0" y="0" transform="rotate(72 50 50)" />
      <use href="#spetal" x="0" y="0" transform="rotate(144 50 50)" />
      <use href="#spetal" x="0" y="0" transform="rotate(216 50 50)" />
      <use href="#spetal" x="0" y="0" transform="rotate(288 50 50)" />
    </symbol>
    <symbol id="O1" viewBox="0 0 65 84">
        <use x="0" y="0" width="100%" height="100%" href="#backwhite" />
        <use x="8.5" y="18" width="48" height="48" href="#bcakel" />
        <text x="53" y="14" fill="black" font-size="11px">1</text>
    </symbol>
    <symbol id="O2" viewBox="0 0 65 84">
        <use x="0" y="0" width="100%" height="100%" href="#backwhite" />
        <use x="18.5" y="10" width="28" height="28" href="#bcakem" />
        <use x="18.5" y="46" width="28" height="28" href="#bcakem" />
        <text x="53" y="14" fill="black" font-size="11px">2</text>
    </symbol>
    <symbol id="O3" viewBox="0 0 65 84">
        <use x="0" y="0" width="100%" height="100%" href="#backwhite" />
        <use x="9" y="9" width="22" height="22" href="#bcake" />
        <use x="21" y="31" width="22" height="22" href="#rcake" />
        <use x="33" y="53" width="22" height="22" href="#bcake" />
        <text x="53" y="14" fill="black" font-size="11px">3</text>
    </symbol>
    <symbol id="circ45" viewBox="0 0 65 84">
        <use x="0" y="0" width="100%" height="100%" href="#backwhite" />
        <use x="11" y="12" width="21" height="21" href="#bcake" />
        <use x="33" y="12" width="21" height="21" href="#bcake" />
        <use x="11" y="51" width="21" height="21" href="#bcake" />
        <use x="33" y="51" width="21" height="21" href="#bcake" />
    </symbol>
    <symbol id="O4" viewBox="0 0 65 84">
        <use x="0" y="0" width="100%" height="100%" href="#circ45" />

        <text x="53" y="14" fill="black" font-size="11px">4</text>
    </symbol>
    <symbol id="O5" viewBox="0 0 65 84">
        <use x="0" y="0" width="100%" height="100%" href="#circ45" />

        <use x="22" y="31.5" width="21" height="21" href="#rcake" />
        <text x="53" y="14" fill="black" font-size="11px">5</text>
    </symbol>
    <symbol id="O6" viewBox="0 0 65 84">
        <use x="0" y="0" width="100%" height="100%" href="#backwhite" />
        <use x="12" y="9" width="21" height="21" href="#bcake" />
        <use x="32" y="9" width="21" height="21" href="#bcake" />

        <use x="12" y="36" width="21" height="21" href="#rcake" />
        <use x="12" y="55" width="21" height="21" href="#rcake" />
        <use x="32" y="36" width="21" height="21" href="#rcake" />
        <use x="32" y="55" width="21" height="21" href="#rcake" />
        <text x="53" y="14" fill="black" font-size="11px">6</text>
    </symbol>
    <symbol id="O7" viewBox="0 0 65 84">
        <use x="0" y="0" width="100%" height="100%" href="#backwhite" />
        <use x="6" y="5" width="20" height="20" href="#bcake" />
        <use x="22.5" y="14" width="20" height="20" href="#bcake" />
        <use x="39" y="23" width="20" height="20" href="#bcake" />

        <use x="13" y="41" width="20" height="20" href="#rcake" />
        <use x="13" y="59" width="20" height="20" href="#rcake" />
        <use x="32" y="41" width="20" height="20" href="#rcake" />
        <use x="32" y="59" width="20" height="20" href="#rcake" />
        <text x="53" y="14" fill="black" font-size="11px">7</text>
    </symbol>
    <symbol id="O8" viewBox="0 0 65 84">
        <use x="0" y="0" width="100%" height="100%" href="#backwhite" />
        <use x="13" y="5" width="20" height="20" href="#bcake" />
        <use x="13" y="23" width="20" height="20" href="#bcake" />
        <use x="13" y="41" width="20" height="20" href="#bcake" />
        <use x="13" y="59" width="20" height="20" href="#bcake" />

        <use x="32" y="5" width="20" height="20" href="#bcake" />
        <use x="32" y="23" width="20" height="20" href="#bcake" />
        <use x="32" y="41" width="20" height="20" href="#bcake" />
        <use x="32" y="59" width="20" height="20" href="#bcake" />
        <text x="53" y="14" fill="black" font-size="11px">8</text>
    </symbol>
    <symbol id="O9" viewBox="0 0 65 84">
        <use x="0" y="0" width="100%" height="100%" href="#backwhite" />
        <use x="4.5" y="6" width="20" height="20" href="#bcake" />
        <use x="22.5" y="6" width="20" height="20" href="#bcake" />
        <use x="40.5" y="6" width="20" height="20" href="#bcake" />

        <use x="4.5" y="32" width="20" height="20" href="#rcake" />
        <use x="22.5" y="32" width="20" height="20" href="#rcake" />
        <use x="40.5" y="32" width="20" height="20" href="#rcake" />

        <use x="4.5" y="58" width="20" height="20" href="#bcake" />
        <use x="22.5" y="58" width="20" height="20" href="#bcake" />
        <use x="40.5" y="58" width="20" height="20" href="#bcake" />
        <text x="54" y="14" fill="white" font-size="11px" stroke="black" stroke-width="1">9</text>
    </symbol>
</defs>

<!-- Suit 'man' -->
<symbol id="M1" viewBox="0 0 65 84">
  <image x="0" y="0" height="100%" width="100%"  href="media/mjs/man1.svg" />
</symbol>
<symbol id="M2" viewBox="0 0 65 84">
  <image x="0" y="0" height="100%" width="100%"  href="media/mjs/man2.svg" />
</symbol>
<symbol id="M3" viewBox="0 0 65 84">
  <image x="0" y="0" height="100%" width="100%"  href="media/mjs/man3.svg" />
</symbol>
<symbol id="M4" viewBox="0 0 65 84">
  <image x="0" y="0" height="100%" width="100%"  href="media/mjs/man4.svg" />
</symbol>
<symbol id="M5" viewBox="0 0 65 84">
  <image x="0" y="0" height="100%" width="100%"  href="media/mjs/man5.svg" />
</symbol>
<symbol id="M6" viewBox="0 0 65 84">
  <image x="0" y="0" height="100%" width="100%"  href="media/mjs/man6.svg" />
</symbol>
<symbol id="M7" viewBox="0 0 65 84">
  <image x="0" y="0" height="100%" width="100%"  href="media/mjs/man7.svg" />
</symbol>
<symbol id="M8" viewBox="0 0 65 84">
  <image x="0" y="0" height="100%" width="100%"  href="media/mjs/man8.svg" />
</symbol>
<symbol id="M9" viewBox="0 0 65 84">
  <image x="0" y="0" height="100%" width="100%"  href="media/mjs/man9.svg" />
</symbol>

<!-- Suit 'bamboo', a.k.a. 'sticks' -->
<defs>
    <symbol id="ncbam" viewBox="0 0 14 30" >
        <path d="M0 4c0 -3 5 -4 7 -4v2c-4 0 -3 4 -2 4v6h2v16h-1c0 0 -6 3 -6 -1v-1c0 -1 3 -3 3 -3v-4c-3 -2 -4 -5 0 -8v-3c-1 0 -3 -3 -3 -4z"
              id="hbam" />
        <use href="#hbam" transform="translate(14,0) scale(-1,1)" />
        <path id="gbwn" d="M4 14.5c0 -2 6 -2 6 0z" fill="white" />
        <use x="0" y="2" href="#gbwn" />
        <path d="M5 18.5c0 -1 4 -1 4 0v8h-4z" fill="white" />
    </symbol>
    <symbol id="gbam" viewBox="0 0 14 30" >
        <use x="0" y="0" width="100%" height="100%" href="#ncbam" fill="#0e280b" />
    </symbol>
    <symbol id="rbam" viewBox="0 0 14 30" >
        <use x="0" y="0" width="100%" height="100%" href="#ncbam" fill="#ba1a21" />
    </symbol>
    <symbol id="B2" viewBox="0 0 65 84">
        <use x="0" y="0" width="100%" height="100%" href="#backwhite" />
        <use x="25.5" y="11" width="14" height="30" href="#gbam" />
        <use x="25.5" y="43" width="14" height="30" href="#gbam" />
        <text x="55" y="14" fill="black" font-size="11px">2</text>
    </symbol>
    <symbol id="B3" viewBox="0 0 65 84">
        <use x="0" y="0" width="100%" height="100%" href="#backwhite" />
        <use x="25.5" y="11" width="14" height="30" href="#gbam" />
        <use x="10" y="43" width="14" height="30" href="#gbam" />
        <use x="41" y="43" width="14" height="30" href="#gbam" />
        <text x="55" y="14" fill="black" font-size="11px">3</text>
    </symbol>
    <symbol id="B4" viewBox="0 0 65 84">
        <use x="0" y="0" width="100%" height="100%" href="#backwhite" />
        <use x="14" y="11" width="14" height="30" href="#gbam" />
        <use x="37" y="11" width="14" height="30" href="#gbam" />
        <use x="14" y="43" width="14" height="30" href="#gbam" />
        <use x="37" y="43" width="14" height="30" href="#gbam" />
        <text x="55" y="14" fill="black" font-size="11px">4</text>
    </symbol>
    <symbol id="B5" viewBox="0 0 65 84">
        <use x="0" y="0" width="100%" height="100%" href="#backwhite" />
        <use x="10" y="11" width="14" height="30" href="#gbam" />
        <use x="41" y="11" width="14" height="30" href="#gbam" />
        <use x="25.5" y="27" width="14" height="30" href="#rbam" />
        <use x="10" y="43" width="14" height="30" href="#gbam" />
        <use x="41" y="43" width="14" height="30" href="#gbam" />
        <text x="55" y="14" fill="black" font-size="11px">5</text>
    </symbol>
    <symbol id="B6" viewBox="0 0 65 84">
        <use x="0" y="0" width="100%" height="100%" href="#backwhite" />
        <use x="10" y="11" width="14" height="30" href="#gbam" />
        <use x="25.5" y="11" width="14" height="30" href="#gbam" />
        <use x="41" y="11" width="14" height="30" href="#gbam" />
        <use x="10" y="43" width="14" height="30" href="#gbam" />
        <use x="25.5" y="43" width="14" height="30" href="#gbam" />
        <use x="41" y="43" width="14" height="30" href="#gbam" />
        <text x="55" y="14" fill="black" font-size="11px">6</text>
    </symbol>
    <symbol id="B7" viewBox="0 0 65 84">
        <use x="0" y="0" width="100%" height="100%" href="#backwhite" />
        <use x="27" y="5" width="12" height="24" href="#rbam" />
        <use x="10.5" y="30" width="12" height="24" href="#gbam" />
        <use x="27" y="30" width="12" height="24" href="#gbam" />
        <use x="43.5" y="30" width="12" height="24" href="#gbam" />
        <use x="10.5" y="55" width="12" height="24" href="#gbam" />
        <use x="27" y="55" width="12" height="24" href="#gbam" />
        <use x="43.5" y="55" width="12" height="24" href="#gbam" />
        <text x="55" y="14" fill="black" font-size="11px">7</text>
    </symbol>
    <symbol id="B8" viewBox="0 0 65 84">
        <use x="0" y="0" width="100%" height="100%" href="#backwhite" />
        <use x="10" y="11" width="14" height="30" href="#gbam" />
        <use x="41" y="11" width="14" height="30" href="#gbam" />
        <g id="bm8">
            <use x="23" y="20" width="10" height="20" href="#gbam" transform="rotate(35,28,30)" />
            <use x="32.5" y="20" width="10" height="20" href="#gbam" transform="rotate(-35,37.5,30)" />
            <path d="M29.6 27.8v-3c0 -2 2.7 -2 2.7 0v3z" fill="white" transform="rotate(35,31,25.8)" />
            <path d="M33.1 27.8v-3c0 -2 2.7 -2 2.7 0v3z" fill="white" transform="rotate(-35,34.2,25.8)" />
        </g>
        <use x="0" y="0" href="#bm8" transform="translate(-0.2,84) scale(1,-1)" />
        <use x="10" y="43" width="14" height="30" href="#gbam" />
        <use x="41" y="43" width="14" height="30" href="#gbam" />
        <text x="55" y="14" fill="black" font-size="11px">8</text>
    </symbol>
    <symbol id="B9" viewBox="0 0 65 84">
        <use x="0" y="0" width="100%" height="100%" href="#backwhite" />
        <use x="12" y="5" width="12" height="24" href="#gbam" />
        <use x="27" y="5" width="12" height="24" href="#rbam" />
        <use x="42" y="5" width="12" height="24" href="#gbam" />
        <use x="12" y="30" width="12" height="24" href="#gbam" />
        <use x="27" y="30" width="12" height="24" href="#rbam" />
        <use x="42" y="30" width="12" height="24" href="#gbam" />
        <use x="12" y="55" width="12" height="24" href="#gbam" />
        <use x="27" y="55" width="12" height="24" href="#rbam" />
        <use x="42" y="55" width="12" height="24" href="#gbam" />
        <text x="55" y="14" fill="black" font-size="11px">9</text>
    </symbol>
</defs>
<symbol id="B1" viewBox="0 0 65 84">
  <image x="0" y="0" height="100%" width="100%"  href="media/mjs/bamb1.svg" />
</symbol>

<!-- Suit 'words', includes 3 dragons (middle, FA, Babei), winds, flowers -->
<symbol id="F1" viewBox="0 0 65 84">
  <image x="0" y="0" height="100%" width="100%"  href="media/mjs/flower1.svg" />
</symbol>
<symbol id="F2" viewBox="0 0 65 84">
  <image x="0" y="0" height="100%" width="100%"  href="media/mjs/flower2.svg" />
</symbol>
<symbol id="F3" viewBox="0 0 65 84">
  <image x="0" y="0" height="100%" width="100%"  href="media/mjs/flower3.svg" />
</symbol>
<symbol id="F4" viewBox="0 0 65 84">
  <image x="0" y="0" height="100%" width="100%"  href="media/mjs/flower4.svg" />
</symbol>
<symbol id="F5" viewBox="0 0 65 84">
  <image x="0" y="0" height="100%" width="100%"  href="media/mjs/flower1.svg" />
</symbol>
<symbol id="F6" viewBox="0 0 65 84">
  <image x="0" y="0" height="100%" width="100%"  href="media/mjs/flower2.svg" />
</symbol>
<symbol id="F7" viewBox="0 0 65 84">
  <image x="0" y="0" height="100%" width="100%"  href="media/mjs/flower3.svg" />
</symbol>
<symbol id="F8" viewBox="0 0 65 84">
  <image x="0" y="0" height="100%" width="100%"  href="media/mjs/flower4.svg" />
</symbol>
<symbol id="CN" viewBox="0 0 65 84">
  <image x="0" y="0" width="65" height="84"  href="media/mjs/dragonred.svg" />
</symbol>
<symbol id="FA" viewBox="0 0 65 84">
  <image x="0" y="0" height="100%" width="100%"  href="media/mjs/dragongreen.svg" />
</symbol>
<symbol id="BB" viewBox="0 0 65 84">
  <image x="0" y="0" height="100%" width="100%"  href="media/mjs/dragonwhite.svg" />
</symbol>
<symbol id="WE" viewBox="0 0 65 84">
  <image x="0" y="0" height="100%" width="100%"  href="media/mjs/windeast.svg" />
</symbol>
<symbol id="WS" viewBox="0 0 65 84">
  <image x="0" y="0" height="100%" width="100%"  href="media/mjs/windsouth.svg" />
</symbol>
<symbol id="WW" viewBox="0 0 65 84">
  <image x="0" y="0" height="100%" width="100%"  href="media/mjs/windwest.svg" />
</symbol>
<symbol id="WN" viewBox="0 0 65 84">
  <image x="0" y="0" height="100%" width="100%"  href="media/mjs/windnorth.svg" />
</symbol>

<!-- Logo -->
<symbol id="CNx3" viewBox="0 0 195 84">
  <image x="0" y="0" width="65" height="84"  href="media/mjs/dragonred.svg" />
  <image x="65" y="0" width="65" height="84"  href="media/mjs/dragonred.svg" />
  <use x="130" y="0" width="65" height="84" href="#CN" />
</symbol>

<!-- Drag and drop outlines -->
<symbol id="OutTgt" viewBox="0 0 65 84" >
  <use stroke="yellow" href="#out" />
</symbol>
<symbol id="SymDTgt" viewBox="0 0 86 112" >
  <rect fill="red" stroke-width="0" opacity="50%"
    x="0.5" y="0.5" rx="6" ry="6" width="84" height="111" />
  <text x="4" y="12" fill="pink" font-size="11px" stroke="white" stroke-width="0.4">Discard / 出牌</text>
</symbol>
<symbol id="arrowright" viewBox="0 0 65 112" >
  <line x1="33" y1="10" x2="48" y2="10" stroke="yellow" stroke-width="4" />
  <polygon points="47 2, 64 12, 47 12" fill="yellow" />
  <line x1="33" y1="102" x2="48" y2="102" stroke="yellow" stroke-width="4" />
  <polygon points="47 110, 64 100, 47 100" fill="yellow" />
</symbol>
<symbol id="arrowleft" viewBox="0 0 65 112" >
  <line x1="17" y1="10" x2="32" y2="10" stroke="yellow" stroke-width="4" />
  <polygon points="18 2, 1 12, 18 12" fill="yellow" />
  <line x1="17" y1="102" x2="32" y2="102" stroke="yellow" stroke-width="4" />
  <polygon points="18 110, 18 100, 1 100" fill="yellow" />
</symbol>
</svg>
